<?xml version="1.0" encoding="UTF-8"?><svg id="b" xmlns="http://www.w3.org/2000/svg" viewBox="0 0 258.35 58.29"><defs><style>.d{stroke:#024f9e;stroke-width:2px;}.d,.e{stroke-miterlimit:10;}.d,.e,.f{fill:none;}.e,.f{stroke:#000;}.f{stroke-miterlimit:5;}.g,.h,.i{stroke-width:0px;}.h{fill:#9e2219;}.i{fill:#024f9e;}</style></defs><g id="c"><line class="e" x1="223.62" y1="32.84" x2="236.9" y2="25.17"/><line class="e" x1="236.9" y1="25.17" x2="249.17" y2="32.26"/><line class="e" x1="238.7" y1="26.21" x2="238.7" y2="10.42"/><line class="e" x1="235.1" y1="26.21" x2="235.1" y2="10.42"/><path class="g" d="m216.43,38.63v-7.16h3.17c.64,0,1.12.06,1.46.19.33.13.6.36.8.68.2.33.3.69.3,1.08,0,.51-.16.94-.49,1.28-.33.35-.84.57-1.52.66.25.12.44.24.57.36.28.25.54.57.79.95l1.25,1.95h-1.19l-.95-1.49c-.28-.43-.5-.76-.68-.99-.18-.23-.34-.39-.48-.48-.14-.09-.29-.15-.43-.19-.11-.02-.28-.03-.53-.03h-1.1v3.18h-.95Zm.95-4h2.04c.43,0,.77-.04,1.02-.13s.43-.23.56-.43.19-.41.19-.64c0-.34-.12-.62-.37-.83-.25-.22-.63-.33-1.16-.33h-2.27v2.37Z"/><path class="f" d="m236.47,25.42l.43-.25.43.25"/><path class="h" d="m233.48,5.21c0-1.19.32-2.12.96-2.79.64-.67,1.46-1.01,2.47-1.01.66,0,1.26.16,1.79.47.53.32.94.76,1.21,1.32.28.56.42,1.21.42,1.92s-.15,1.38-.44,1.95c-.29.57-.71,1.01-1.25,1.3-.54.29-1.12.44-1.74.44-.67,0-1.28-.16-1.81-.49s-.93-.77-1.21-1.33c-.27-.56-.41-1.16-.41-1.79Zm.98.01c0,.86.23,1.54.7,2.04s1.05.74,1.75.74,1.3-.25,1.76-.75c.46-.5.69-1.21.69-2.13,0-.58-.1-1.09-.3-1.53s-.48-.77-.86-1.01c-.38-.24-.8-.36-1.28-.36-.67,0-1.25.23-1.73.69-.48.46-.73,1.23-.73,2.31Z"/><path class="i" d="m255.48,36.18l.95.24c-.2.78-.56,1.37-1.07,1.78s-1.15.61-1.89.61-1.4-.16-1.88-.47c-.48-.31-.85-.77-1.1-1.36-.25-.6-.38-1.24-.38-1.92,0-.75.14-1.4.43-1.95.28-.56.69-.98,1.22-1.26s1.1-.43,1.74-.43c.72,0,1.32.18,1.81.55.49.36.83.88,1.02,1.54l-.93.22c-.17-.52-.41-.9-.72-1.14-.32-.24-.71-.36-1.19-.36-.55,0-1.01.13-1.38.4-.37.26-.63.62-.78,1.06s-.22.9-.22,1.37c0,.61.09,1.14.27,1.59s.45.79.83,1.02c.37.22.78.34,1.22.34.53,0,.98-.15,1.35-.46.37-.31.62-.76.75-1.36Zm1.98,2.51v-7.16h.88v7.16h-.88Z"/><line class="e" x1="135.91" y1="31.98" x2="149.2" y2="24.31"/><line class="e" x1="149.2" y1="24.31" x2="161.85" y2="31.62"/><line class="e" x1="151" y1="25.35" x2="151" y2="9.56"/><line class="e" x1="147.4" y1="25.35" x2="147.4" y2="9.56"/><line class="e" x1="171" y1="31.73" x2="183.84" y2="24.31"/><line class="e" x1="183.84" y1="24.31" x2="196.62" y2="31.69"/><line class="e" x1="185.64" y1="25.35" x2="185.64" y2="9.56"/><line class="e" x1="182.04" y1="25.35" x2="182.04" y2="9.56"/><path class="g" d="m128.72,37.77v-7.16h3.17c.64,0,1.12.06,1.46.19.33.13.6.36.8.68.2.33.3.69.3,1.08,0,.51-.16.94-.49,1.28-.33.35-.84.57-1.52.66.25.12.44.24.57.36.28.25.54.57.79.95l1.25,1.95h-1.19l-.95-1.49c-.28-.43-.5-.76-.68-.99-.18-.23-.34-.39-.48-.48-.14-.09-.29-.15-.43-.19-.11-.02-.28-.03-.53-.03h-1.1v3.18h-.95Zm.95-4h2.04c.43,0,.77-.04,1.02-.13.24-.09.43-.23.56-.43s.19-.41.19-.64c0-.34-.12-.62-.37-.83-.25-.22-.63-.33-1.16-.33h-2.27v2.37Z"/><path class="f" d="m148.76,24.56l.43-.25.43.25"/><path class="h" d="m163.09,34.35c0-1.19.32-2.12.96-2.79.64-.67,1.46-1.01,2.47-1.01.66,0,1.26.16,1.79.47.53.32.94.76,1.21,1.32s.42,1.21.42,1.92-.15,1.38-.44,1.95c-.29.57-.71,1.01-1.25,1.3-.54.29-1.12.44-1.74.44-.67,0-1.28-.16-1.81-.49-.53-.33-.93-.77-1.21-1.33-.27-.56-.41-1.16-.41-1.79Zm.98.01c0,.86.23,1.54.7,2.04.46.5,1.05.74,1.75.74s1.3-.25,1.76-.75c.46-.5.69-1.21.69-2.13,0-.58-.1-1.09-.3-1.53s-.49-.77-.86-1.01c-.38-.24-.8-.36-1.28-.36-.67,0-1.25.23-1.73.69-.48.46-.73,1.23-.73,2.31Z"/><path class="h" d="m145.77,4.35c0-1.19.32-2.12.96-2.79.64-.67,1.46-1.01,2.47-1.01.66,0,1.26.16,1.79.47.53.32.94.76,1.21,1.32.28.56.42,1.21.42,1.92s-.15,1.38-.44,1.95c-.29.57-.71,1.01-1.25,1.3-.54.29-1.12.44-1.74.44-.67,0-1.28-.16-1.81-.49-.53-.33-.93-.77-1.21-1.33-.27-.56-.41-1.16-.41-1.79Zm.98.01c0,.86.23,1.54.7,2.04.46.5,1.05.74,1.75.74s1.3-.25,1.76-.75c.46-.5.69-1.21.69-2.13,0-.58-.1-1.09-.3-1.53-.2-.43-.49-.77-.86-1.01-.38-.24-.8-.36-1.28-.36-.67,0-1.25.23-1.73.69-.48.46-.73,1.23-.73,2.31Z"/><path class="f" d="m184.27,24.56l-.43-.25-.43.25"/><path class="g" d="m198,37.77v-7.16h3.17c.64,0,1.12.06,1.46.19.33.13.6.36.8.68.2.33.3.69.3,1.08,0,.51-.16.94-.49,1.28-.33.35-.84.57-1.52.66.25.12.44.24.57.36.28.25.54.57.79.95l1.25,1.95h-1.19l-.95-1.49c-.28-.43-.5-.76-.68-.99-.18-.23-.34-.39-.48-.48-.14-.09-.29-.15-.43-.19-.11-.02-.28-.03-.53-.03h-1.1v3.18h-.95Zm.95-4h2.04c.43,0,.77-.04,1.02-.13s.43-.23.56-.43c.13-.2.19-.41.19-.64,0-.34-.12-.62-.37-.83-.25-.22-.63-.33-1.16-.33h-2.27v2.37Z"/><path class="g" d="m205.54,33.15l-.22-1.34v-1.2h1v1.2l-.23,1.34h-.54Z"/><path class="h" d="m180.41,4.35c0-1.19.32-2.12.96-2.79.64-.67,1.46-1.01,2.47-1.01.66,0,1.26.16,1.79.47.53.32.94.76,1.21,1.32.28.56.42,1.21.42,1.92s-.15,1.38-.44,1.95c-.29.57-.71,1.01-1.25,1.3-.54.29-1.12.44-1.74.44-.67,0-1.28-.16-1.81-.49-.53-.33-.93-.77-1.21-1.33-.27-.56-.41-1.16-.41-1.79Zm.98.01c0,.86.23,1.54.7,2.04.46.5,1.05.74,1.75.74s1.3-.25,1.76-.75c.46-.5.69-1.21.69-2.13,0-.58-.1-1.09-.3-1.53-.2-.43-.49-.77-.86-1.01s-.8-.36-1.28-.36c-.67,0-1.25.23-1.73.69-.48.46-.73,1.23-.73,2.31Z"/><line class="e" x1="73.12" y1="31.43" x2="86.41" y2="23.76"/><line class="e" x1="86.41" y1="23.76" x2="99.06" y2="31.07"/><line class="e" x1="88.21" y1="24.8" x2="88.21" y2="9.01"/><line class="e" x1="84.61" y1="24.8" x2="84.61" y2="9.01"/><path class="g" d="m65.93,37.22v-7.16h3.17c.64,0,1.12.06,1.46.19.33.13.6.36.8.68.2.33.3.69.3,1.08,0,.51-.16.94-.49,1.28-.33.35-.84.57-1.52.66.25.12.44.24.57.36.28.25.54.57.79.95l1.25,1.95h-1.19l-.95-1.49c-.28-.43-.5-.76-.68-.99-.18-.23-.34-.39-.48-.48s-.29-.15-.43-.19c-.11-.02-.28-.03-.53-.03h-1.1v3.18h-.95Zm.95-4h2.04c.43,0,.77-.04,1.02-.13s.43-.23.56-.43c.13-.2.19-.41.19-.64,0-.34-.12-.62-.37-.83-.25-.22-.63-.33-1.16-.33h-2.27v2.37Z"/><path class="f" d="m86.84,24.01l-.43-.25-.43.25"/><path class="i" d="m100.31,33.8c0-1.19.32-2.12.96-2.79s1.46-1.01,2.47-1.01c.66,0,1.26.16,1.79.47.53.32.94.76,1.21,1.32.28.56.42,1.21.42,1.92s-.15,1.38-.44,1.95c-.29.57-.71,1.01-1.25,1.3-.54.29-1.12.44-1.74.44-.67,0-1.28-.16-1.81-.49s-.93-.77-1.21-1.33c-.27-.56-.41-1.16-.41-1.79Zm.98.01c0,.86.23,1.54.7,2.04s1.05.74,1.75.74,1.3-.25,1.76-.75c.46-.5.69-1.21.69-2.13,0-.58-.1-1.09-.3-1.53s-.49-.77-.86-1.01c-.38-.24-.8-.36-1.28-.36-.67,0-1.25.23-1.73.69s-.73,1.23-.73,2.31Z"/><path class="i" d="m108.15,37.29v-7.16h3.17c.64,0,1.12.06,1.46.19.33.13.6.36.8.68.2.33.3.69.3,1.08,0,.51-.16.94-.49,1.28-.33.35-.84.57-1.52.66.25.12.44.24.57.36.28.25.54.57.79.95l1.25,1.95h-1.19l-.95-1.49c-.28-.43-.5-.76-.68-.99-.18-.23-.34-.39-.48-.48s-.29-.15-.43-.19c-.11-.02-.28-.03-.53-.03h-1.1v3.18h-.95Zm.95-4h2.04c.43,0,.77-.04,1.02-.13.24-.09.43-.23.56-.43.13-.2.19-.41.19-.64,0-.34-.12-.62-.37-.83-.25-.22-.63-.33-1.16-.33h-2.27v2.37Z"/><path class="i" d="m115.69,32.66l-.22-1.34v-1.2h1v1.2l-.23,1.34h-.54Z"/><path class="h" d="m82.99,3.8c0-1.19.32-2.12.96-2.79.64-.67,1.46-1.01,2.47-1.01.66,0,1.26.16,1.79.47.53.32.94.76,1.21,1.32.28.56.42,1.21.42,1.92s-.15,1.38-.44,1.95c-.29.57-.71,1.01-1.25,1.3-.54.29-1.12.44-1.74.44-.67,0-1.28-.16-1.81-.49-.53-.33-.93-.77-1.21-1.33-.27-.56-.41-1.16-.41-1.79Zm.98.01c0,.86.23,1.54.7,2.04.46.5,1.05.74,1.75.74s1.3-.25,1.76-.75c.46-.5.69-1.21.69-2.13,0-.58-.1-1.09-.3-1.53-.2-.43-.49-.77-.86-1.01-.38-.24-.8-.36-1.28-.36-.67,0-1.25.23-1.73.69-.48.46-.73,1.23-.73,2.31Z"/><line class="e" x1="7.19" y1="31.43" x2="20.47" y2="23.76"/><line class="e" x1="20.47" y1="23.76" x2="33.59" y2="31.34"/><line class="e" x1="22.27" y1="24.8" x2="22.27" y2="9.01"/><line class="e" x1="18.67" y1="24.8" x2="18.67" y2="9.01"/><path class="g" d="m0,37.22v-7.16h3.17c.64,0,1.12.06,1.46.19.33.13.6.36.8.68.2.33.3.69.3,1.08,0,.51-.16.94-.49,1.28-.33.35-.84.57-1.52.66.25.12.44.24.57.36.28.25.54.57.79.95l1.25,1.95h-1.19l-.95-1.49c-.28-.43-.5-.76-.68-.99-.18-.23-.34-.39-.48-.48s-.29-.15-.43-.19c-.11-.02-.28-.03-.53-.03H.95v3.18h-.95Zm.95-4h2.04c.43,0,.77-.04,1.02-.13.24-.09.43-.23.56-.43.13-.2.19-.41.19-.64,0-.34-.12-.62-.37-.83-.25-.22-.63-.33-1.16-.33H.95v2.37Z"/><path class="f" d="m20.04,24.01l.43-.25.43.25"/><path class="h" d="m17.05,3.8c0-1.19.32-2.12.96-2.79s1.46-1.01,2.47-1.01c.66,0,1.26.16,1.79.47s.94.76,1.21,1.32c.28.56.42,1.21.42,1.92s-.15,1.38-.44,1.95c-.29.57-.71,1.01-1.25,1.3-.54.29-1.12.44-1.74.44-.67,0-1.28-.16-1.81-.49-.53-.33-.93-.77-1.21-1.33-.27-.56-.41-1.16-.41-1.79Zm.98.01c0,.86.23,1.54.7,2.04.46.5,1.05.74,1.75.74s1.3-.25,1.76-.75c.46-.5.69-1.21.69-2.13,0-.58-.1-1.09-.3-1.53-.2-.43-.49-.77-.86-1.01-.38-.24-.8-.36-1.28-.36-.67,0-1.25.23-1.73.69-.48.46-.73,1.23-.73,2.31Z"/><path class="i" d="m34.98,37.22v-7.16h.97l3.76,5.62v-5.62h.91v7.16h-.97l-3.76-5.62v5.62h-.91Z"/><path class="i" d="m41.62,37.22v-7.16h.95v2.94h3.72v-2.94h.95v7.16h-.95v-3.37h-3.72v3.37h-.95Z"/><path class="i" d="m51.54,38.22v.59h-3.31c0-.15.02-.29.07-.43.08-.23.22-.45.4-.67.19-.22.45-.47.8-.76.54-.45.91-.8,1.1-1.06s.29-.51.29-.74c0-.24-.09-.45-.26-.62-.17-.17-.4-.25-.68-.25-.3,0-.53.09-.71.27s-.27.42-.27.74l-.63-.06c.04-.47.21-.83.49-1.08s.66-.37,1.14-.37.86.13,1.14.4c.28.27.42.6.42.99,0,.2-.04.4-.12.59-.08.19-.22.4-.41.61-.19.21-.51.51-.95.88-.37.31-.61.52-.71.63s-.19.22-.26.33h2.46Z"/><line class="d" x1=".15" y1="54.9" x2="256.06" y2="54.9"/><polygon class="i" points="252.08 58.29 255.47 54.9 252.08 51.51 254.95 51.51 258.35 54.9 254.95 58.29 252.08 58.29"/></g></svg>