<?xml version="1.0" encoding="UTF-8"?><svg id="b" xmlns="http://www.w3.org/2000/svg" viewBox="0 0 238.51 65.67"><defs><style>.d,.e,.f{stroke-miterlimit:10;}.d,.e,.f,.g{fill:none;}.d,.g{stroke:#000;}.e{stroke:#024f9e;}.f{stroke:#729e19;}.g{stroke-miterlimit:5;}.h,.i,.j,.k{stroke-width:0px;}.i{fill:#730073;}.j{fill:#729e19;}.k{fill:#9e2219;}</style></defs><g id="c"><rect class="e" x=".5" y=".5" width="237.51" height="64.67" rx="6.5" ry="6.5"/><line class="f" x1="99.02" y1="29.93" x2="146.03" y2="29.93"/><path class="j" d="m152.43,29.93l-7.73,2.07s1.55-.41,1.55-2.07-1.55-2.07-1.55-2.07l7.73,2.07Z"/><path class="f" d="m152.43,29.93l-7.73,2.07s1.55-.41,1.55-2.07-1.55-2.07-1.55-2.07l7.73,2.07Z"/><path class="h" d="m113.64,22.87v-7.16h.95v2.94h3.72v-2.94h.95v7.16h-.95v-3.37h-3.72v3.37h-.95Z"/><path class="h" d="m123.57,23.87v.59h-3.31c0-.15.02-.29.07-.43.08-.23.22-.45.4-.67.19-.22.45-.47.8-.76.54-.45.91-.8,1.1-1.06.19-.26.29-.51.29-.74,0-.24-.09-.45-.26-.62-.17-.17-.4-.25-.68-.25-.3,0-.53.09-.71.27s-.27.42-.27.74l-.63-.07c.04-.47.21-.83.49-1.08.28-.25.66-.37,1.14-.37s.86.13,1.14.4c.28.27.42.6.42.99,0,.2-.04.4-.12.59-.08.19-.22.4-.41.61-.19.21-.51.51-.95.88-.37.31-.61.52-.71.63-.1.11-.19.22-.26.33h2.46Z"/><path class="h" d="m124.57,19.38c0-1.19.32-2.12.96-2.79.64-.67,1.46-1.01,2.47-1.01.66,0,1.26.16,1.79.47.53.32.94.76,1.21,1.32.28.56.42,1.21.42,1.92s-.15,1.38-.44,1.95c-.29.57-.71,1.01-1.25,1.3-.54.29-1.12.44-1.74.44-.67,0-1.28-.16-1.81-.49-.53-.33-.93-.77-1.21-1.33-.27-.56-.41-1.16-.41-1.79Zm.98.01c0,.86.23,1.54.7,2.04.46.5,1.05.74,1.75.74s1.3-.25,1.76-.75c.46-.5.69-1.21.69-2.13,0-.58-.1-1.09-.3-1.53-.2-.43-.48-.77-.86-1.01-.38-.24-.8-.36-1.28-.36-.67,0-1.25.23-1.73.69-.48.46-.73,1.23-.73,2.31Z"/><path class="h" d="m174.6,40.13v-1.96h-1.95v-.82h1.95v-1.95h.83v1.95h1.95v.82h-1.95v1.96h-.83Z"/><polygon class="h" points="189.63 36.72 189.41 35.38 189.41 34.18 190.41 34.18 190.41 35.38 190.17 36.72 189.63 36.72"/><path class="i" d="m100.35,49.48c0,.09,0,.16,0,.22,0,.06-.01.1-.02.14-.01.03-.03.06-.04.08-.02.02-.04.03-.07.03s-.07,0-.11-.03c-.04-.02-.1-.04-.15-.05-.06-.02-.12-.03-.19-.05-.07-.02-.15-.02-.23-.02-.1,0-.19.02-.29.06-.09.04-.19.1-.3.19-.1.09-.21.21-.33.36-.11.15-.24.33-.38.54v3.47s0,.06-.02.08c-.02.02-.04.04-.08.06-.04.02-.08.03-.15.04-.06,0-.14.01-.24.01s-.17,0-.23-.01c-.06,0-.11-.02-.15-.04-.04-.02-.06-.03-.08-.06-.01-.02-.02-.05-.02-.08v-5.27s0-.06.02-.08c.01-.02.04-.04.07-.06.04-.02.08-.03.13-.04.05,0,.13,0,.22,0s.16,0,.21,0,.1.02.13.04c.03.02.05.04.07.06.01.02.02.05.02.08v.77c.14-.21.28-.38.41-.52.13-.13.25-.24.36-.31.11-.08.23-.13.34-.16s.22-.04.34-.04c.05,0,.11,0,.17,0,.06,0,.13.02.2.03.07.02.13.03.19.05.06.02.1.04.12.06.02.02.04.04.05.06,0,.02.01.04.02.07,0,.03,0,.07.01.12s0,.12,0,.21Z"/><path class="i" d="m106.2,51.54c0,.15-.04.26-.11.33-.08.06-.16.1-.26.1h-3.46c0,.29.03.56.09.79.06.23.16.44.29.6.14.17.31.3.53.39.22.09.49.13.8.13.25,0,.47-.02.67-.06.2-.04.36-.09.51-.14.14-.05.26-.1.35-.14.09-.04.16-.06.21-.06.03,0,.05,0,.07.02.02.01.04.03.05.06.01.03.02.07.03.11s0,.11,0,.18c0,.05,0,.09,0,.13,0,.04,0,.07-.01.1,0,.03-.02.06-.03.08-.01.02-.03.05-.05.07-.02.02-.08.06-.19.11-.11.05-.24.1-.41.14-.17.05-.36.09-.58.13-.22.04-.46.06-.71.06-.43,0-.81-.06-1.14-.18-.33-.12-.6-.3-.82-.54-.22-.24-.39-.54-.5-.9-.11-.36-.17-.78-.17-1.25s.06-.86.18-1.22c.12-.36.29-.67.51-.92.22-.25.49-.45.8-.58.31-.13.66-.2,1.05-.2.41,0,.77.07,1.06.2.29.13.53.31.72.54.19.22.33.49.41.79.09.3.13.63.13.97v.18Zm-.97-.29c.01-.51-.1-.91-.34-1.2-.24-.29-.59-.43-1.05-.43-.24,0-.45.04-.63.13-.18.09-.33.21-.45.36-.12.15-.21.32-.28.52-.07.2-.1.4-.11.62h2.86Zm6.42,3.16s-.02.08-.05.11c-.03.02-.07.04-.13.05-.05.01-.13.02-.24.02s-.18,0-.24-.02c-.06-.01-.1-.03-.13-.05-.03-.02-.04-.06-.04-.11v-.53c-.23.25-.49.44-.77.57-.28.14-.58.21-.9.21-.28,0-.53-.04-.75-.11-.22-.07-.42-.18-.57-.31-.16-.14-.28-.3-.37-.5-.09-.2-.13-.43-.13-.68,0-.3.06-.55.18-.77s.29-.4.52-.54c.23-.14.5-.25.83-.33.33-.07.7-.11,1.11-.11h.73v-.41c0-.2-.02-.38-.06-.54-.04-.16-.11-.29-.21-.39-.1-.1-.22-.18-.37-.23-.15-.05-.34-.08-.56-.08-.24,0-.45.03-.64.09-.19.06-.36.12-.5.19-.14.07-.26.13-.36.19s-.17.09-.21.09c-.03,0-.06,0-.08-.02-.02-.02-.04-.04-.06-.07-.02-.03-.03-.07-.04-.12,0-.05-.01-.1-.01-.16,0-.1,0-.17.02-.23.01-.06.05-.11.1-.16.05-.05.14-.11.27-.18.13-.07.28-.13.45-.19.17-.06.35-.1.55-.14.2-.04.4-.06.6-.06.38,0,.7.04.97.13.27.09.48.21.64.38.16.17.28.37.36.62.07.25.11.53.11.86v3.56Zm-.96-2.41h-.83c-.27,0-.5.02-.69.07-.2.04-.36.11-.49.2-.13.09-.22.19-.28.32-.06.12-.09.26-.09.42,0,.27.09.49.26.65.17.16.42.24.73.24.25,0,.49-.06.71-.19.22-.13.44-.33.68-.59v-1.12Zm6.53,1.6c0,.07,0,.12,0,.17,0,.05-.01.09-.02.12,0,.03-.02.06-.04.09-.01.03-.04.06-.09.11-.05.05-.13.11-.25.18-.12.07-.25.14-.4.19-.15.06-.31.1-.48.14-.17.04-.35.05-.53.05-.38,0-.71-.06-1.01-.19-.29-.12-.54-.31-.74-.55-.2-.24-.35-.54-.45-.88-.1-.35-.16-.75-.16-1.21,0-.52.06-.97.19-1.34.13-.37.3-.68.52-.92.22-.24.48-.42.78-.53.3-.12.62-.17.97-.17.17,0,.33.02.49.05.16.03.3.07.44.12.13.05.25.11.35.18.1.07.18.12.23.17.05.05.08.08.1.11.02.03.03.06.04.1.01.04.02.08.02.13,0,.05,0,.11,0,.18,0,.15-.02.26-.05.32-.04.06-.08.09-.13.09-.06,0-.13-.03-.2-.1-.08-.06-.17-.14-.29-.21-.12-.08-.26-.15-.42-.21-.17-.06-.36-.1-.59-.1-.46,0-.82.18-1.07.54-.25.36-.37.88-.37,1.56,0,.34.03.64.1.89.06.26.16.47.28.64.12.17.28.3.46.38.18.08.39.13.62.13s.42-.04.59-.11c.17-.07.31-.15.44-.23s.23-.16.31-.23c.08-.07.15-.1.2-.1.03,0,.05,0,.07.02.02.02.04.04.05.08.01.04.02.08.03.14,0,.06,0,.12,0,.2Zm4.03.42c0,.11,0,.2-.02.27s-.04.12-.07.15c-.03.03-.08.06-.14.09-.06.03-.13.05-.21.07-.08.02-.17.03-.25.04-.09.01-.18.02-.27.02-.27,0-.51-.04-.7-.11-.2-.07-.36-.18-.48-.33-.12-.15-.22-.33-.27-.56-.06-.22-.08-.49-.08-.79v-3.08h-.74c-.06,0-.11-.03-.14-.09-.04-.06-.05-.16-.05-.3,0-.07,0-.14.01-.19,0-.05.02-.09.04-.13.02-.03.04-.06.06-.07.03-.01.05-.02.08-.02h.73v-1.25s0-.05.02-.08c.01-.02.04-.04.08-.06.04-.02.09-.03.15-.04.06,0,.14-.01.23-.01s.18,0,.24.01c.06,0,.11.02.15.04.04.02.06.04.08.06.02.02.02.05.02.08v1.25h1.35s.06,0,.08.02c.02.01.04.04.06.07.02.03.03.08.04.13,0,.05.01.11.01.19,0,.14-.02.24-.05.3-.04.06-.08.09-.14.09h-1.35v2.94c0,.36.05.64.16.82s.3.28.58.28c.09,0,.17,0,.24-.03.07-.02.13-.04.19-.06.05-.02.1-.04.14-.06.04-.02.07-.03.11-.03.02,0,.04,0,.06.01.02,0,.03.03.04.06,0,.03.02.06.03.11,0,.05.01.11.01.18Zm4.59-1.05c0,.27-.05.51-.15.72-.1.21-.24.39-.42.53-.18.14-.4.25-.66.33-.25.07-.53.11-.84.11-.19,0-.37-.01-.54-.04-.17-.03-.32-.07-.46-.11-.13-.04-.25-.09-.34-.14-.09-.05-.16-.09-.21-.13-.04-.04-.07-.09-.09-.16-.02-.07-.03-.17-.03-.29,0-.07,0-.14.01-.19,0-.05.02-.09.03-.12.01-.03.03-.05.05-.07.02-.01.05-.02.07-.02.04,0,.11.03.19.08s.19.11.31.17c.12.06.27.12.44.17.17.05.36.08.58.08.16,0,.31-.02.45-.05.13-.04.25-.09.35-.16.1-.07.17-.16.23-.26.05-.11.08-.23.08-.38,0-.15-.04-.27-.11-.38-.08-.1-.18-.19-.3-.27s-.27-.15-.42-.21c-.16-.06-.32-.12-.48-.19-.17-.07-.33-.14-.49-.23-.16-.08-.3-.19-.42-.31-.12-.12-.23-.27-.3-.43-.08-.17-.11-.37-.11-.6,0-.21.04-.41.12-.59.08-.19.2-.36.36-.5.16-.14.36-.26.6-.34.24-.09.52-.13.84-.13.14,0,.28.01.42.04.14.02.27.05.38.09.11.04.21.07.29.11.08.04.14.08.18.11.04.03.07.06.08.08.01.02.02.05.03.08,0,.03.01.07.02.11,0,.04,0,.1,0,.16,0,.07,0,.12,0,.17,0,.05-.02.09-.03.12-.01.03-.03.05-.05.07-.02.01-.04.02-.06.02-.04,0-.09-.02-.15-.06-.07-.04-.15-.09-.26-.14-.11-.05-.23-.09-.37-.14-.14-.04-.31-.06-.49-.06-.16,0-.31.02-.43.06-.12.04-.23.09-.31.16-.08.07-.14.15-.18.24-.04.09-.06.2-.06.3,0,.15.04.28.12.38.08.1.18.19.3.27.12.08.27.15.43.21.16.06.32.13.49.19.17.07.33.14.49.22.16.08.31.18.43.3.12.12.23.26.3.42.08.16.11.36.11.59Z"/><path class="i" d="m133.63,52.97c0,.27-.05.51-.15.72-.1.21-.24.39-.42.53-.18.14-.4.25-.66.33-.25.07-.53.11-.84.11-.19,0-.37-.01-.54-.04-.17-.03-.32-.07-.46-.11-.13-.04-.25-.09-.34-.14-.09-.05-.16-.09-.21-.13-.04-.04-.07-.09-.09-.16-.02-.07-.03-.17-.03-.29,0-.07,0-.14.01-.19,0-.05.02-.09.03-.12.01-.03.03-.05.05-.07.02-.01.05-.02.07-.02.04,0,.11.03.19.08s.19.11.31.17c.12.06.27.12.44.17.17.05.36.08.58.08.16,0,.31-.02.45-.05.13-.04.25-.09.35-.16.1-.07.17-.16.23-.26s.08-.23.08-.38-.04-.27-.11-.38c-.08-.1-.18-.19-.3-.27s-.27-.15-.42-.21c-.16-.06-.32-.12-.48-.19-.17-.07-.33-.14-.49-.23-.16-.08-.3-.19-.42-.31-.12-.12-.23-.27-.3-.43-.08-.17-.11-.37-.11-.6,0-.21.04-.41.12-.59.08-.19.2-.36.36-.5.16-.14.36-.26.6-.34.24-.09.52-.13.84-.13.14,0,.28.01.42.04.14.02.27.05.38.09.11.04.21.07.29.11.08.04.14.08.18.11.04.03.07.06.08.08.01.02.02.05.03.08,0,.03.01.07.02.11,0,.04,0,.1,0,.16,0,.07,0,.12,0,.17,0,.05-.02.09-.03.12-.01.03-.03.05-.05.07-.02.01-.04.02-.06.02-.04,0-.09-.02-.15-.06-.07-.04-.15-.09-.26-.14-.11-.05-.23-.09-.37-.14-.14-.04-.31-.06-.49-.06-.16,0-.31.02-.43.06-.12.04-.23.09-.31.16-.08.07-.14.15-.18.24-.04.09-.06.2-.06.3,0,.15.04.28.12.38.08.1.18.19.3.27.12.08.27.15.43.21.16.06.32.13.49.19.17.07.33.14.49.22.16.08.31.18.43.3.12.12.23.26.3.42.08.16.11.36.11.59Zm2.35,1.44s0,.06-.02.08c-.02.02-.04.04-.08.06-.04.02-.08.03-.15.04-.06,0-.14.01-.24.01s-.17,0-.23-.01c-.06,0-.11-.02-.15-.04-.04-.02-.06-.03-.08-.06-.01-.02-.02-.05-.02-.08v-7.83s0-.06.02-.08c.01-.02.04-.04.08-.06.04-.02.09-.03.15-.04.06,0,.14-.01.23-.01s.18,0,.24.01c.06,0,.11.02.15.04.04.02.06.04.08.06.02.02.02.05.02.08v7.83Zm6.69-2.7c0,.43-.06.83-.17,1.19-.11.36-.28.67-.51.93-.22.26-.51.47-.84.61-.34.15-.73.22-1.17.22s-.81-.06-1.13-.19c-.32-.13-.59-.32-.81-.56-.21-.25-.38-.54-.48-.9-.11-.35-.16-.75-.16-1.2s.06-.83.17-1.19c.11-.36.28-.67.5-.93.22-.26.5-.46.84-.61s.73-.22,1.18-.22.81.06,1.13.19c.32.13.59.32.81.56.21.25.38.54.48.9.11.35.16.75.16,1.19Zm-1.02.06c0-.29-.03-.55-.08-.81-.05-.25-.14-.48-.26-.67-.12-.19-.29-.34-.49-.45-.21-.11-.46-.17-.77-.17-.29,0-.53.05-.74.15-.21.1-.37.25-.51.43-.13.19-.23.41-.3.66-.06.25-.1.53-.1.83s.03.56.08.81c.05.25.14.48.26.66.12.19.29.34.5.45.21.11.46.17.77.17.28,0,.53-.05.73-.15.21-.1.38-.24.51-.43.13-.18.23-.4.29-.66.06-.25.09-.53.09-.84Zm9.82-2.65s0,.06-.01.1c0,.04-.02.09-.04.15l-1.55,5.01s-.03.08-.06.11c-.03.03-.06.05-.11.06-.04.02-.11.03-.18.03-.08,0-.18,0-.29,0s-.22,0-.3-.01c-.08,0-.15-.02-.2-.04-.05-.02-.08-.04-.11-.06-.02-.03-.04-.06-.05-.1l-1.11-3.83v-.05s-.02.05-.02.05l-1.03,3.83s-.03.08-.06.11c-.03.03-.06.05-.11.06-.05.02-.12.03-.2.03-.08,0-.18,0-.3,0s-.22,0-.3-.01c-.08,0-.14-.02-.19-.04-.05-.02-.08-.04-.11-.06-.02-.03-.04-.06-.05-.1l-1.54-5.01c-.02-.06-.03-.11-.04-.15,0-.04-.01-.07-.01-.1,0-.04,0-.06.02-.08.02-.02.04-.04.08-.05.04-.01.09-.02.15-.03.06,0,.14,0,.23,0,.11,0,.2,0,.26,0,.07,0,.12.02.15.03.04.01.06.03.08.06s.03.06.04.09l1.27,4.35v.05s.02-.05.02-.05l1.17-4.35s.02-.07.04-.09c.02-.03.04-.04.08-.06.04-.01.08-.02.14-.03.06,0,.14,0,.24,0s.17,0,.23,0c.06,0,.11.02.14.03s.06.03.08.06c.02.02.03.05.04.08l1.26,4.36v.05s.02-.05.02-.05l1.25-4.35s.02-.07.04-.09c.02-.03.04-.04.08-.06s.09-.02.15-.03c.06,0,.15,0,.25,0,.09,0,.17,0,.23,0,.06,0,.1.01.13.03.03.02.06.03.07.05s.02.05.02.08Zm2.17,5.29s0,.06-.02.08c-.02.02-.04.04-.08.06-.04.02-.08.03-.15.04-.06,0-.14.01-.24.01s-.17,0-.23-.01c-.06,0-.11-.02-.15-.04-.04-.02-.06-.03-.08-.06-.01-.02-.02-.05-.02-.08v-7.83s0-.06.02-.08c.01-.02.04-.04.08-.06.04-.02.09-.03.15-.04.06,0,.14-.01.23-.01s.18,0,.24.01c.06,0,.11.02.15.04.04.02.06.04.08.06.02.02.02.05.02.08v7.83Zm4.19.15l-.7,1.94c-.02.06-.08.11-.18.14-.1.03-.24.05-.44.05-.1,0-.18,0-.25-.01-.06,0-.11-.03-.14-.05-.03-.02-.05-.05-.06-.09,0-.04,0-.09.03-.14l.73-1.83s-.07-.04-.1-.08c-.03-.04-.05-.07-.06-.11l-1.88-5.04c-.03-.08-.05-.15-.05-.19s.02-.08.05-.11c.03-.03.08-.05.15-.06.07,0,.16-.01.28-.01s.21,0,.28,0,.12.02.16.03c.04.02.07.04.08.07.02.03.04.07.06.12l1.51,4.23h.02l1.45-4.25c.02-.07.05-.12.08-.14.03-.02.08-.04.15-.05.07,0,.16-.01.29-.01.11,0,.2,0,.27.01.07,0,.12.03.16.06.03.03.05.06.05.11s-.01.11-.04.18l-1.89,5.24Z"/><line class="d" x1="21.74" y1="40.42" x2="35.03" y2="32.75"/><line class="d" x1="35.03" y1="32.75" x2="47.68" y2="40.05"/><line class="d" x1="36.83" y1="33.79" x2="36.83" y2="17.99"/><line class="d" x1="33.23" y1="33.79" x2="33.23" y2="17.99"/><line class="d" x1="56.83" y1="40.16" x2="69.67" y2="32.75"/><line class="d" x1="69.67" y1="32.75" x2="82.45" y2="40.13"/><line class="d" x1="71.47" y1="33.79" x2="71.47" y2="17.99"/><line class="d" x1="67.87" y1="33.79" x2="67.87" y2="17.99"/><path class="h" d="m14.55,46.21v-7.16h3.17c.64,0,1.12.06,1.46.19.33.13.6.36.8.68.2.33.3.69.3,1.08,0,.51-.16.94-.49,1.28-.33.35-.84.57-1.52.66.25.12.44.24.57.36.28.25.54.57.79.95l1.25,1.95h-1.19l-.95-1.49c-.28-.43-.5-.76-.68-.99-.18-.23-.34-.39-.48-.48-.14-.09-.29-.15-.43-.19-.11-.02-.28-.03-.53-.03h-1.1v3.18h-.95Zm.95-4h2.04c.43,0,.77-.04,1.02-.13.24-.09.43-.23.56-.43.13-.2.19-.41.19-.64,0-.34-.12-.62-.37-.84-.25-.22-.63-.33-1.16-.33h-2.27v2.37Z"/><path class="g" d="m35.46,33l-.43-.25-.43.25"/><path class="k" d="m48.92,42.78c0-1.19.32-2.12.96-2.79.64-.67,1.46-1.01,2.47-1.01.66,0,1.26.16,1.79.47s.94.76,1.21,1.32c.28.56.42,1.21.42,1.92s-.15,1.38-.44,1.95c-.29.57-.71,1.01-1.25,1.3-.54.29-1.12.44-1.74.44-.67,0-1.28-.16-1.81-.49s-.93-.77-1.21-1.33c-.27-.56-.41-1.16-.41-1.79Zm.98.01c0,.86.23,1.54.7,2.04s1.05.74,1.75.74,1.3-.25,1.76-.75c.46-.5.69-1.21.69-2.13,0-.58-.1-1.09-.3-1.53-.2-.43-.49-.77-.86-1.01-.38-.24-.8-.36-1.28-.36-.67,0-1.25.23-1.73.69s-.73,1.23-.73,2.31Z"/><path class="k" d="m31.6,12.78c0-1.19.32-2.12.96-2.79.64-.67,1.46-1.01,2.47-1.01.66,0,1.26.16,1.79.47.53.32.94.76,1.21,1.32.28.56.42,1.21.42,1.92,0,.73-.15,1.38-.44,1.95-.29.57-.71,1.01-1.25,1.3-.54.29-1.12.44-1.74.44-.67,0-1.28-.16-1.81-.49-.53-.33-.93-.77-1.21-1.33-.27-.56-.41-1.16-.41-1.79Zm.98.01c0,.86.23,1.54.7,2.04.46.5,1.05.74,1.75.74s1.3-.25,1.76-.75c.46-.5.69-1.21.69-2.13,0-.58-.1-1.09-.3-1.53-.2-.43-.49-.77-.86-1.01-.38-.24-.8-.36-1.28-.36-.67,0-1.25.23-1.73.69-.48.46-.73,1.23-.73,2.31Z"/><path class="g" d="m70.1,33l-.43-.25-.43.25"/><path class="k" d="m66.24,12.78c0-1.19.32-2.12.96-2.79.64-.67,1.46-1.01,2.47-1.01.66,0,1.26.16,1.79.47.53.32.94.76,1.21,1.32.28.56.42,1.21.42,1.92s-.15,1.38-.44,1.95c-.29.57-.71,1.01-1.25,1.3-.54.29-1.12.44-1.74.44-.67,0-1.28-.16-1.81-.49-.53-.33-.93-.77-1.21-1.33-.27-.56-.41-1.16-.41-1.79Zm.98.01c0,.86.23,1.54.7,2.04.46.5,1.05.74,1.75.74s1.3-.25,1.76-.75c.46-.5.69-1.21.69-2.13,0-.58-.1-1.09-.3-1.53-.2-.43-.48-.77-.86-1.01-.38-.24-.8-.36-1.28-.36-.67,0-1.25.23-1.73.69-.48.46-.73,1.23-.73,2.31Z"/><path class="h" d="m83.83,46.21v-7.16h3.17c.64,0,1.12.06,1.46.19.33.13.6.36.8.68.2.33.3.69.3,1.08,0,.51-.16.94-.49,1.28-.33.35-.84.57-1.52.66.25.12.44.24.57.36.28.25.54.57.79.95l1.25,1.95h-1.19l-.95-1.49c-.28-.43-.5-.76-.68-.99-.18-.23-.34-.39-.48-.48-.14-.09-.29-.15-.43-.19-.11-.02-.28-.03-.53-.03h-1.1v3.18h-.95Zm.95-4h2.04c.43,0,.77-.04,1.02-.13.24-.09.43-.23.56-.43.13-.2.19-.41.19-.64,0-.34-.12-.62-.37-.84-.25-.22-.63-.33-1.16-.33h-2.27v2.37Z"/><path class="h" d="m91.37,41.58l-.22-1.34v-1.2h1v1.2l-.23,1.34h-.54Z"/><line class="d" x1="169.18" y1="22.17" x2="175.29" y2="22.17"/><path class="h" d="m161.62,25.62v-7.16h3.17c.64,0,1.12.06,1.46.19.33.13.6.36.8.68.2.33.3.69.3,1.08,0,.51-.16.94-.49,1.28-.33.35-.84.57-1.52.66.25.12.44.24.57.36.28.25.54.57.79.95l1.25,1.95h-1.19l-.95-1.49c-.28-.43-.5-.76-.68-.99-.18-.23-.34-.39-.48-.48s-.29-.15-.43-.19c-.11-.02-.28-.03-.53-.03h-1.1v3.18h-.95Zm.95-4h2.04c.43,0,.77-.04,1.02-.13s.43-.23.56-.43c.13-.2.19-.41.19-.64,0-.34-.12-.62-.37-.83-.25-.22-.63-.33-1.16-.33h-2.27v2.37Z"/><path class="k" d="m182.27,23.18l.95.24c-.2.78-.56,1.37-1.07,1.78-.52.41-1.15.61-1.89.61s-1.4-.16-1.88-.47c-.48-.31-.85-.77-1.1-1.36-.25-.6-.38-1.24-.38-1.92,0-.75.14-1.4.43-1.95.28-.56.69-.98,1.22-1.26.53-.29,1.1-.43,1.74-.43.72,0,1.32.18,1.81.55.49.36.83.88,1.02,1.54l-.93.22c-.17-.52-.41-.9-.72-1.14-.32-.24-.71-.36-1.19-.36-.55,0-1.01.13-1.38.4-.37.26-.63.62-.78,1.06-.15.44-.22.9-.22,1.37,0,.61.09,1.14.27,1.59.18.45.45.79.83,1.02.37.22.78.34,1.22.34.53,0,.98-.15,1.35-.46.37-.31.62-.76.75-1.36Z"/><path class="k" d="m184.22,22.2c0-1.19.32-2.12.96-2.79.64-.67,1.46-1.01,2.47-1.01.66,0,1.26.16,1.79.47.53.32.94.76,1.21,1.32.28.56.42,1.21.42,1.92s-.15,1.38-.44,1.95c-.29.57-.71,1.01-1.25,1.3-.54.29-1.12.44-1.74.44-.67,0-1.28-.16-1.81-.49-.53-.33-.93-.77-1.21-1.33-.27-.56-.41-1.16-.41-1.79Zm.98.01c0,.86.23,1.54.7,2.04.46.5,1.05.74,1.75.74s1.3-.25,1.76-.75c.46-.5.69-1.21.69-2.13,0-.58-.1-1.09-.3-1.53-.2-.43-.49-.77-.86-1.01-.38-.24-.8-.36-1.28-.36-.67,0-1.25.23-1.73.69-.48.46-.73,1.23-.73,2.31Z"/><path class="k" d="m192.06,22.2c0-1.19.32-2.12.96-2.79.64-.67,1.46-1.01,2.47-1.01.66,0,1.26.16,1.79.47.53.32.94.76,1.21,1.32.28.56.42,1.21.42,1.92s-.15,1.38-.44,1.95c-.29.57-.71,1.01-1.25,1.3-.54.29-1.12.44-1.74.44-.67,0-1.28-.16-1.81-.49-.53-.33-.93-.77-1.21-1.33-.27-.56-.41-1.16-.41-1.79Zm.98.01c0,.86.23,1.54.7,2.04.46.5,1.05.74,1.75.74s1.3-.25,1.76-.75c.46-.5.69-1.21.69-2.13,0-.58-.1-1.09-.3-1.53-.2-.43-.49-.77-.86-1.01-.38-.24-.8-.36-1.28-.36-.67,0-1.25.23-1.73.69-.48.46-.73,1.23-.73,2.31Z"/><path class="k" d="m199.91,25.68v-7.16h.95v2.94h3.72v-2.94h.95v7.16h-.95v-3.37h-3.72v3.37h-.95Z"/><line class="d" x1="191.06" y1="37.82" x2="193.73" y2="37.82"/><path class="h" d="m182.32,41.28v-7.16h3.17c.64,0,1.12.06,1.46.19.33.13.6.36.8.68.2.33.3.69.3,1.08,0,.51-.16.94-.49,1.28-.33.35-.84.57-1.52.66.25.12.44.24.57.36.28.25.54.57.79.95l1.25,1.95h-1.19l-.95-1.49c-.28-.43-.5-.76-.68-.99-.18-.23-.34-.39-.48-.48s-.29-.15-.43-.19c-.11-.02-.28-.03-.53-.03h-1.1v3.18h-.95Zm.95-4h2.04c.43,0,.77-.04,1.02-.13s.43-.23.56-.43c.13-.2.19-.41.19-.64,0-.34-.12-.62-.37-.83-.25-.22-.63-.33-1.16-.33h-2.27v2.37Z"/><path class="k" d="m200.71,38.83l.95.24c-.2.78-.56,1.37-1.07,1.78-.52.41-1.15.61-1.89.61s-1.4-.16-1.88-.47c-.48-.31-.85-.77-1.1-1.36-.25-.6-.38-1.24-.38-1.92,0-.75.14-1.4.43-1.95.28-.56.69-.98,1.22-1.26.53-.29,1.1-.43,1.74-.43.72,0,1.32.18,1.81.55.49.36.83.88,1.02,1.54l-.93.22c-.17-.52-.41-.9-.72-1.14-.32-.24-.71-.36-1.19-.36-.55,0-1.01.13-1.38.4-.37.26-.63.62-.78,1.06-.15.44-.22.9-.22,1.37,0,.61.09,1.14.27,1.59.18.45.45.79.83,1.02.37.22.78.34,1.22.34.53,0,.98-.15,1.35-.46.37-.31.62-.76.75-1.36Z"/><path class="k" d="m202.66,37.86c0-1.19.32-2.12.96-2.79.64-.67,1.46-1.01,2.47-1.01.66,0,1.26.16,1.79.47.53.32.94.76,1.21,1.32.28.56.42,1.21.42,1.92s-.15,1.38-.44,1.95c-.29.57-.71,1.01-1.25,1.3-.54.29-1.12.44-1.74.44-.67,0-1.28-.16-1.81-.49-.53-.33-.93-.77-1.21-1.33-.27-.56-.41-1.16-.41-1.79Zm.98.01c0,.86.23,1.54.7,2.04.46.5,1.05.74,1.75.74s1.3-.25,1.76-.75c.46-.5.69-1.21.69-2.13,0-.58-.1-1.09-.3-1.53-.2-.43-.49-.77-.86-1.01-.38-.24-.8-.36-1.28-.36-.67,0-1.25.23-1.73.69-.48.46-.73,1.23-.73,2.31Z"/><path class="k" d="m210.5,37.86c0-1.19.32-2.12.96-2.79.64-.67,1.46-1.01,2.47-1.01.66,0,1.26.16,1.79.47.53.32.94.76,1.21,1.32.28.56.42,1.21.42,1.92s-.15,1.38-.44,1.95c-.29.57-.71,1.01-1.25,1.3-.54.29-1.12.44-1.74.44-.67,0-1.28-.16-1.81-.49-.53-.33-.93-.77-1.21-1.33-.27-.56-.41-1.16-.41-1.79Zm.98.01c0,.86.23,1.54.7,2.04.46.5,1.05.74,1.75.74s1.3-.25,1.76-.75c.46-.5.69-1.21.69-2.13,0-.58-.1-1.09-.3-1.53-.2-.43-.49-.77-.86-1.01-.38-.24-.8-.36-1.28-.36-.67,0-1.25.23-1.73.69-.48.46-.73,1.23-.73,2.31Z"/><path class="k" d="m218.35,41.34v-7.16h.95v2.94h3.72v-2.94h.95v7.16h-.95v-3.37h-3.72v3.37h-.95Z"/></g></svg>