<?xml version="1.0" encoding="UTF-8"?><svg id="b" xmlns="http://www.w3.org/2000/svg" viewBox="0 0 238.51 135.43"><defs><style>.d{stroke-linecap:square;}.d,.e,.f,.g,.h{stroke-miterlimit:10;}.d,.e,.f,.g,.h,.i{fill:none;}.d,.e,.i{stroke:#000;}.f{stroke:#024f9e;}.g{stroke:#729e19;}.h{stroke:#90c;}.i{stroke-miterlimit:5;}.j,.k,.l,.m,.n,.o{stroke-width:0px;}.k{fill:#730073;}.l{fill:#729e19;}.m{fill:#90c;}.n{fill:#9e2219;}.o{fill:#024f9e;}</style></defs><g id="c"><path class="o" d="m205.3,33.41v-7.16h.97l3.76,5.62v-5.62h.91v7.16h-.97l-3.76-5.62v5.62h-.91Zm7.26,0v-7.16h.95v2.94h3.72v-2.94h.95v7.16h-.95v-3.37h-3.72v3.37h-.95Z"/><path class="o" d="m219.17,33.68l.62-.08c.07.35.19.6.36.75.17.15.38.23.62.23.29,0,.53-.1.73-.3s.3-.45.3-.75-.09-.52-.28-.7c-.18-.18-.42-.28-.7-.28-.12,0-.26.02-.43.07l.07-.54s.07,0,.1,0c.26,0,.5-.07.71-.21.21-.14.31-.35.31-.63,0-.23-.08-.41-.23-.56-.15-.15-.35-.22-.59-.22s-.44.08-.6.23c-.16.15-.26.38-.31.68l-.62-.11c.08-.41.25-.73.51-.96.27-.23.6-.34.99-.34.27,0,.53.06.76.18.23.12.41.28.53.48.12.2.18.42.18.65s-.06.41-.17.59c-.12.18-.29.32-.52.42.3.07.53.21.69.43.16.22.25.48.25.81,0,.44-.16.81-.48,1.11-.32.3-.72.46-1.21.46-.44,0-.8-.13-1.1-.39-.29-.26-.46-.6-.5-1.02Z"/><path class="o" d="m201.61,86.45v-7.16h.97l3.76,5.62v-5.62h.91v7.16h-.97l-3.76-5.62v5.62h-.91Zm7.26,0v-7.16h.95v2.94h3.72v-2.94h.95v7.16h-.95v-3.37h-3.72v3.37h-.95Z"/><path class="o" d="m217.66,88.04v-1.2h-2.17v-.56l2.29-3.25h.5v3.25h.68v.56h-.68v1.2h-.62Zm0-1.76v-2.26l-1.57,2.26h1.57Z"/><path class="o" d="m221.32,82.05v-1.37h-1.36v-.57h1.36v-1.36h.58v1.36h1.36v.57h-1.36v1.37h-.58Z"/><path class="k" d="m73.62,107.99c0,.09,0,.16,0,.22s-.01.1-.02.14c-.01.03-.03.06-.04.08s-.04.03-.07.03-.07,0-.11-.03c-.04-.02-.1-.04-.15-.05-.06-.02-.12-.03-.19-.05-.07-.02-.15-.02-.23-.02-.1,0-.19.02-.29.06-.09.04-.19.1-.3.19-.1.09-.21.21-.33.36-.11.15-.24.33-.38.54v3.47s0,.06-.02.08c-.02.02-.04.04-.08.06s-.08.03-.15.04c-.06,0-.14.01-.24.01s-.17,0-.23-.01c-.06,0-.11-.02-.15-.04s-.06-.03-.08-.06c-.01-.02-.02-.05-.02-.08v-5.27s0-.06.02-.08.04-.04.07-.06.08-.03.13-.04c.05,0,.13,0,.22,0s.16,0,.21,0c.06,0,.1.02.13.04.03.02.05.04.07.06s.02.05.02.08v.77c.14-.21.28-.38.41-.52s.25-.24.36-.31c.11-.08.23-.13.34-.16s.22-.04.34-.04c.05,0,.11,0,.17,0,.06,0,.13.02.2.03.07.02.13.03.19.05s.1.04.12.06c.02.02.04.04.05.06,0,.02.01.04.02.07,0,.03,0,.07.01.12,0,.05,0,.12,0,.21Z"/><path class="k" d="m79.47,110.06c0,.15-.04.26-.11.33-.08.06-.16.1-.26.1h-3.46c0,.29.03.56.09.79.06.23.16.44.29.6.14.17.31.3.53.39.22.09.49.13.8.13.25,0,.47-.02.67-.06.2-.04.36-.09.51-.14s.26-.1.35-.14c.09-.04.16-.06.21-.06.03,0,.05,0,.07.02s.04.03.05.06.02.07.03.11c0,.05,0,.11,0,.18,0,.05,0,.09,0,.13s0,.07-.01.1c0,.03-.02.06-.03.08-.01.02-.03.05-.05.07-.02.02-.08.06-.19.11s-.24.1-.41.14c-.17.05-.36.09-.58.13-.22.04-.46.06-.71.06-.43,0-.81-.06-1.14-.18-.33-.12-.6-.3-.82-.54-.22-.24-.39-.54-.5-.9-.11-.36-.17-.78-.17-1.25s.06-.86.18-1.22c.12-.36.29-.67.51-.92.22-.25.49-.45.8-.58.31-.13.66-.2,1.05-.2.41,0,.77.07,1.06.2.29.13.53.31.72.54.19.22.33.49.41.79.09.3.13.63.13.97v.18Zm-.97-.29c.01-.51-.1-.91-.34-1.2-.24-.29-.59-.43-1.05-.43-.24,0-.45.04-.63.13-.18.09-.33.21-.45.36-.12.15-.21.32-.28.52-.07.2-.1.4-.11.62h2.86Zm6.42,3.16s-.02.08-.05.11-.07.04-.13.05-.13.02-.24.02-.18,0-.24-.02-.1-.03-.13-.05c-.03-.02-.04-.06-.04-.11v-.53c-.23.25-.49.44-.77.57s-.58.21-.9.21c-.28,0-.53-.04-.75-.11-.22-.07-.42-.18-.57-.31s-.28-.3-.37-.5c-.09-.2-.13-.43-.13-.68,0-.3.06-.55.18-.77.12-.22.29-.4.52-.55.23-.14.5-.25.83-.33.33-.07.7-.11,1.11-.11h.73v-.41c0-.2-.02-.38-.06-.54-.04-.16-.11-.29-.21-.39-.1-.1-.22-.18-.37-.23-.15-.05-.34-.08-.56-.08-.24,0-.45.03-.64.09-.19.06-.36.12-.5.19-.14.07-.26.13-.36.19-.1.06-.17.08-.21.08-.03,0-.06,0-.08-.02-.02-.02-.04-.04-.06-.07-.02-.03-.03-.07-.04-.12,0-.05-.01-.1-.01-.16,0-.1,0-.17.02-.23.01-.06.05-.11.1-.16.05-.05.14-.11.27-.18.13-.07.28-.13.45-.19.17-.06.35-.1.55-.14.2-.04.4-.06.6-.06.38,0,.7.04.97.13.27.09.48.21.64.38s.28.37.36.62c.07.25.11.53.11.86v3.56Zm-.96-2.41h-.83c-.27,0-.5.02-.69.07-.2.04-.36.11-.49.2-.13.09-.22.19-.28.32-.06.12-.09.26-.09.42,0,.27.09.49.26.65.17.16.42.24.73.24.25,0,.49-.06.71-.19.22-.13.44-.33.68-.59v-1.12Zm6.53,1.6c0,.07,0,.12,0,.17,0,.05-.01.09-.02.12,0,.03-.02.06-.04.09s-.04.06-.09.11c-.05.05-.13.11-.25.18-.12.07-.25.14-.4.19-.15.06-.31.1-.48.14-.17.04-.35.05-.53.05-.38,0-.71-.06-1.01-.19-.29-.12-.54-.31-.74-.55s-.35-.54-.45-.88c-.1-.35-.16-.75-.16-1.21,0-.52.06-.97.19-1.34.13-.37.3-.68.52-.92.22-.24.48-.41.78-.53.3-.12.62-.17.97-.17.17,0,.33.02.49.05s.3.07.44.12c.13.05.25.11.35.18.1.07.18.12.23.17.05.05.08.08.1.11.02.03.03.06.04.1.01.04.02.08.02.13,0,.05,0,.11,0,.18,0,.15-.02.26-.05.32-.04.06-.08.09-.13.09-.06,0-.13-.03-.2-.1-.08-.06-.17-.14-.29-.21-.12-.08-.26-.15-.42-.21-.17-.06-.36-.1-.59-.1-.46,0-.82.18-1.07.54s-.37.88-.37,1.56c0,.34.03.64.1.89.06.26.16.47.28.64s.28.3.46.38c.18.08.39.13.62.13s.42-.04.59-.11c.17-.07.31-.15.44-.23.12-.08.23-.16.31-.23.08-.07.15-.1.2-.1.03,0,.05,0,.07.02.02.02.04.04.05.08.01.04.02.08.03.14,0,.06,0,.12,0,.2Zm4.03.42c0,.11,0,.2-.02.27-.02.07-.04.12-.07.15-.03.03-.08.06-.14.09-.06.03-.13.05-.21.07-.08.02-.17.03-.25.04-.09.01-.18.02-.27.02-.27,0-.51-.04-.7-.11s-.36-.18-.48-.33-.22-.33-.27-.56c-.06-.22-.08-.49-.08-.79v-3.08h-.74c-.06,0-.11-.03-.14-.09-.04-.06-.05-.16-.05-.3,0-.07,0-.14.01-.19,0-.05.02-.09.04-.13s.04-.06.06-.07c.03-.01.05-.02.09-.02h.73v-1.25s0-.05.02-.08c.01-.02.04-.04.08-.06.04-.02.09-.03.15-.04.06,0,.14-.01.23-.01s.18,0,.24.01c.06,0,.11.02.15.04s.06.04.08.06c.02.02.02.05.02.08v1.25h1.35s.06,0,.08.02c.02.01.04.04.06.07.02.03.03.08.04.13,0,.05.01.11.01.19,0,.14-.02.24-.05.3-.04.06-.08.09-.14.09h-1.35v2.94c0,.36.05.64.16.82.11.19.3.28.58.28.09,0,.17,0,.24-.03s.13-.04.19-.06c.05-.02.1-.04.14-.06s.07-.03.11-.03c.02,0,.04,0,.06.01.02,0,.03.03.04.06,0,.03.02.06.03.11,0,.05.01.11.01.18Zm4.59-1.05c0,.27-.05.51-.15.72-.1.21-.24.39-.42.53-.18.14-.4.25-.66.33-.25.07-.53.11-.84.11-.19,0-.37-.01-.54-.04-.17-.03-.32-.07-.46-.11-.13-.04-.25-.09-.34-.14-.09-.05-.16-.09-.21-.13-.04-.04-.07-.09-.09-.16s-.03-.17-.03-.29c0-.07,0-.14.01-.19,0-.05.02-.09.03-.12.01-.03.03-.05.05-.07.02-.01.05-.02.07-.02.04,0,.11.03.19.08.08.05.19.11.31.17.12.06.27.12.44.17.17.05.36.08.58.08.16,0,.31-.02.45-.05.13-.04.25-.09.35-.16.1-.07.17-.16.23-.26.05-.11.08-.23.08-.38s-.04-.27-.11-.38c-.08-.1-.18-.19-.3-.27-.12-.08-.27-.15-.42-.21-.16-.06-.32-.12-.48-.19s-.33-.14-.49-.23-.3-.19-.42-.31-.23-.27-.3-.43-.11-.37-.11-.6c0-.21.04-.41.12-.59.08-.19.2-.36.36-.5.16-.14.36-.26.6-.34.24-.09.52-.13.84-.13.14,0,.28.01.42.04s.27.05.38.09c.11.04.21.07.29.11.08.04.14.08.18.11.04.03.07.06.08.08s.02.05.03.08.01.07.02.11c0,.04,0,.1,0,.16,0,.07,0,.12,0,.17,0,.05-.02.09-.03.12-.01.03-.03.05-.05.07-.02.01-.04.02-.06.02-.04,0-.09-.02-.15-.06-.07-.04-.15-.09-.26-.14s-.23-.09-.37-.14c-.14-.04-.31-.06-.49-.06-.16,0-.31.02-.43.06s-.23.09-.31.16c-.08.07-.14.15-.18.24-.04.09-.06.2-.06.3,0,.15.04.28.12.38.08.1.18.19.3.27s.27.15.43.21c.16.06.32.13.49.19s.33.14.49.22c.16.08.31.18.43.3s.23.26.3.42.11.36.11.59Z"/><path class="k" d="m106.9,111.49c0,.27-.05.51-.15.72-.1.21-.24.39-.42.53-.18.14-.4.25-.66.33-.25.07-.53.11-.84.11-.19,0-.37-.01-.54-.04-.17-.03-.32-.07-.46-.11-.13-.04-.25-.09-.34-.14-.09-.05-.16-.09-.21-.13-.04-.04-.07-.09-.09-.16s-.03-.17-.03-.29c0-.07,0-.14.01-.19,0-.05.02-.09.03-.12.01-.03.03-.05.05-.07.02-.01.05-.02.07-.02.04,0,.11.03.19.08.08.05.19.11.31.17s.27.12.44.17c.17.05.36.08.58.08.16,0,.31-.02.45-.05s.25-.09.35-.16.17-.16.23-.26.08-.23.08-.38-.04-.27-.11-.38c-.08-.1-.18-.19-.3-.27-.12-.08-.27-.15-.42-.21-.16-.06-.32-.12-.48-.19s-.33-.14-.49-.23-.3-.19-.42-.31-.23-.27-.3-.43c-.08-.17-.11-.37-.11-.6,0-.21.04-.41.12-.59.08-.19.2-.36.36-.5.16-.14.36-.26.6-.34.24-.09.52-.13.84-.13.14,0,.28.01.42.04s.27.05.38.09c.11.04.21.07.29.11.08.04.14.08.18.11.04.03.07.06.08.08s.02.05.03.08.01.07.02.11c0,.04,0,.1,0,.16,0,.07,0,.12,0,.17,0,.05-.02.09-.03.12-.01.03-.03.05-.05.07-.02.01-.04.02-.06.02-.04,0-.09-.02-.15-.06-.07-.04-.15-.09-.26-.14s-.23-.09-.37-.14c-.14-.04-.31-.06-.49-.06-.16,0-.31.02-.43.06s-.23.09-.31.16-.14.15-.18.24c-.04.09-.06.2-.06.3,0,.15.04.28.12.38.08.1.18.19.3.27s.27.15.43.21c.16.06.32.13.49.19s.33.14.49.22c.16.08.31.18.43.3.13.12.23.26.3.42.08.16.11.36.11.59Zm2.35,1.44s0,.06-.02.08c-.02.02-.04.04-.08.06-.04.02-.08.03-.15.04s-.14.01-.24.01-.17,0-.23-.01c-.06,0-.11-.02-.15-.04-.04-.02-.06-.03-.08-.06-.01-.02-.02-.05-.02-.08v-7.83s0-.06.02-.08.04-.04.08-.06c.04-.02.09-.03.15-.04.06,0,.14-.01.23-.01s.18,0,.24.01c.06,0,.11.02.15.04.04.02.06.04.08.06.02.02.02.05.02.08v7.83Zm6.69-2.7c0,.43-.06.83-.17,1.19-.11.36-.28.67-.51.93-.22.26-.51.47-.84.61-.34.15-.73.22-1.17.22s-.81-.06-1.13-.19c-.32-.13-.59-.32-.81-.56-.21-.25-.37-.54-.48-.9-.11-.35-.16-.75-.16-1.2,0-.43.06-.83.17-1.19s.28-.67.5-.93c.22-.26.5-.46.84-.61s.73-.22,1.18-.22.81.06,1.13.19.59.32.81.56c.21.25.38.54.48.9.11.35.16.75.16,1.19Zm-1.02.06c0-.29-.03-.55-.08-.81-.05-.25-.14-.48-.26-.67-.12-.19-.29-.34-.49-.45-.21-.11-.46-.17-.77-.17-.29,0-.53.05-.74.15-.21.1-.37.25-.51.43-.13.19-.23.41-.3.66s-.1.53-.1.83.03.56.08.81.14.48.26.67c.12.19.29.34.5.45s.46.17.77.17c.28,0,.53-.05.73-.15.21-.1.38-.24.51-.43.13-.18.23-.4.29-.66.06-.25.09-.53.09-.84Zm9.82-2.65s0,.06-.01.1c0,.04-.02.09-.04.15l-1.55,5.01s-.03.08-.06.11-.06.05-.11.06c-.04.02-.11.03-.18.03s-.18,0-.29,0-.22,0-.3-.01c-.08,0-.15-.02-.2-.04-.05-.02-.08-.04-.11-.06-.02-.03-.04-.06-.05-.1l-1.11-3.83v-.05s-.02.05-.02.05l-1.03,3.83s-.03.08-.06.11-.06.05-.11.06c-.05.02-.12.03-.2.03-.08,0-.18,0-.3,0s-.22,0-.3-.01c-.08,0-.14-.02-.19-.04-.05-.02-.08-.04-.11-.06-.02-.03-.04-.06-.05-.1l-1.54-5.01c-.02-.06-.03-.11-.04-.15s-.01-.07-.01-.1c0-.04,0-.06.02-.09.02-.02.04-.04.08-.05.04-.01.09-.02.15-.03.06,0,.14,0,.23,0,.11,0,.2,0,.26,0,.07,0,.12.02.15.03.04.01.06.03.08.06.02.03.03.06.04.09l1.27,4.35v.05s.02-.05.02-.05l1.17-4.35s.02-.07.04-.09c.02-.03.04-.04.08-.06.04-.01.08-.02.14-.03.06,0,.14,0,.24,0s.17,0,.23,0c.06,0,.11.02.14.03.04.01.06.03.08.06s.03.05.04.08l1.26,4.36v.05s.02-.05.02-.05l1.25-4.35s.02-.07.04-.09c.02-.03.04-.04.08-.06.04-.01.09-.02.15-.03.06,0,.15,0,.25,0,.09,0,.17,0,.23,0,.06,0,.1.01.13.03.03.02.06.03.07.05s.02.05.02.08Z"/><path class="k" d="m133.67,110.06c0,.15-.04.26-.11.33-.08.06-.16.1-.26.1h-3.46c0,.29.03.56.09.79s.16.44.29.6c.14.17.31.3.53.39.22.09.49.13.8.13.25,0,.47-.02.67-.06.2-.04.36-.09.51-.14.14-.05.26-.1.35-.14.09-.04.16-.06.21-.06.03,0,.05,0,.07.02s.04.03.05.06.02.07.03.11c0,.05,0,.11,0,.18,0,.05,0,.09,0,.13s0,.07-.01.1c0,.03-.02.06-.03.08-.01.02-.03.05-.05.07-.02.02-.08.06-.19.11s-.24.1-.41.14c-.17.05-.36.09-.58.13-.22.04-.46.06-.71.06-.43,0-.81-.06-1.14-.18-.33-.12-.6-.3-.82-.54-.22-.24-.39-.54-.5-.9-.11-.36-.17-.78-.17-1.25,0-.45.06-.86.18-1.22.12-.36.29-.67.51-.92.22-.25.49-.45.8-.58.31-.13.66-.2,1.05-.2.41,0,.77.07,1.06.2.29.13.53.31.72.54s.33.49.41.79c.09.3.13.63.13.97v.18Zm-.97-.29c.01-.51-.1-.91-.34-1.2s-.59-.43-1.05-.43c-.24,0-.45.04-.63.13-.18.09-.33.21-.45.36-.12.15-.21.32-.28.52-.07.2-.1.4-.11.62h2.86Zm6.77-2.13s0,.03,0,.05,0,.04,0,.06c0,.02,0,.04-.01.06s-.01.05-.02.08l-1.8,5.01s-.04.08-.06.11-.06.05-.11.06c-.05.02-.12.03-.19.03s-.18,0-.29,0-.21,0-.29-.01c-.08,0-.14-.02-.19-.04-.05-.02-.09-.04-.11-.06s-.05-.06-.06-.1l-1.79-5.01s-.03-.09-.04-.12c0-.04-.02-.06-.02-.08,0-.02,0-.03,0-.04,0-.03,0-.06.02-.08.02-.02.04-.04.08-.06.04-.01.09-.02.15-.03.06,0,.14,0,.23,0,.11,0,.2,0,.27,0,.07,0,.12.02.16.03.04.02.06.04.08.06.02.02.03.05.05.09l1.49,4.35.02.07.02-.07,1.47-4.35s.02-.06.04-.09.05-.04.08-.06c.04-.02.09-.03.15-.03.06,0,.15,0,.25,0,.09,0,.16,0,.22,0,.06,0,.1.01.14.03.03.02.06.03.07.06s.02.05.02.08Zm5.6,2.42c0,.15-.04.26-.11.33-.08.06-.16.1-.26.1h-3.46c0,.29.03.56.09.79s.16.44.29.6c.14.17.31.3.53.39.22.09.49.13.8.13.25,0,.47-.02.67-.06.2-.04.36-.09.51-.14s.26-.1.35-.14.16-.06.21-.06c.03,0,.05,0,.07.02.02.01.04.03.05.06.01.03.02.07.03.11,0,.05,0,.11,0,.18,0,.05,0,.09,0,.13,0,.04,0,.07-.01.1s-.02.06-.03.08-.03.05-.05.07c-.02.02-.08.06-.19.11s-.24.1-.41.14c-.17.05-.36.09-.58.13-.22.04-.46.06-.71.06-.43,0-.81-.06-1.14-.18-.33-.12-.6-.3-.82-.54-.22-.24-.39-.54-.5-.9s-.17-.78-.17-1.25.06-.86.18-1.22c.12-.36.29-.67.51-.92.22-.25.49-.45.8-.58.31-.13.66-.2,1.05-.2.41,0,.77.07,1.06.2.29.13.53.31.72.54.19.22.33.49.41.79s.13.63.13.97v.18Zm-.97-.29c.01-.51-.1-.91-.34-1.2s-.59-.43-1.05-.43c-.24,0-.45.04-.63.13-.18.09-.33.21-.45.36-.12.15-.21.32-.28.52-.07.2-.1.4-.11.62h2.86Zm6.98,3.15s0,.06-.02.08c-.02.02-.04.04-.08.06-.04.02-.08.03-.15.04-.06,0-.14.01-.23.01s-.18,0-.24-.01c-.06,0-.11-.02-.15-.04-.04-.02-.06-.03-.08-.06-.02-.02-.02-.05-.02-.08v-3.09c0-.3-.02-.54-.07-.73-.05-.18-.12-.34-.2-.47-.09-.13-.21-.23-.35-.3-.14-.07-.31-.11-.5-.11-.24,0-.48.09-.73.26-.24.17-.5.42-.76.76v3.69s0,.06-.02.08c-.02.02-.04.04-.08.06-.04.02-.08.03-.15.04-.06,0-.14.01-.24.01s-.17,0-.23-.01c-.06,0-.11-.02-.15-.04-.04-.02-.06-.03-.08-.06-.01-.02-.02-.05-.02-.08v-5.27s0-.06.02-.08c.01-.02.04-.04.07-.06.04-.02.08-.03.13-.04.05,0,.13,0,.22,0s.16,0,.21,0c.06,0,.1.02.13.04s.05.04.07.06c.01.02.02.05.02.08v.7c.3-.33.59-.58.89-.73.29-.15.59-.23.89-.23.35,0,.65.06.89.18.24.12.43.28.58.48.15.2.25.43.32.7.06.27.1.59.1.96v3.22Z"/><path class="k" d="m74.87,124.36s-.02.08-.05.11c-.03.02-.07.04-.13.05-.05.01-.13.02-.24.02s-.18,0-.24-.02c-.06-.01-.1-.03-.13-.05-.03-.02-.04-.06-.04-.11v-.53c-.23.25-.49.44-.77.57-.28.14-.58.21-.9.21-.28,0-.53-.04-.75-.11-.22-.07-.42-.18-.57-.31-.16-.14-.28-.3-.37-.5-.09-.2-.13-.43-.13-.68,0-.3.06-.55.18-.77.12-.22.29-.4.52-.54.23-.14.5-.25.83-.33.33-.07.7-.11,1.11-.11h.73v-.41c0-.2-.02-.38-.06-.54-.04-.16-.11-.29-.21-.39s-.22-.18-.37-.23-.34-.08-.56-.08c-.24,0-.45.03-.64.08-.19.06-.36.12-.5.19-.14.07-.26.13-.36.19-.1.06-.17.08-.21.08-.03,0-.06,0-.08-.02-.02-.02-.04-.04-.06-.07-.02-.03-.03-.07-.04-.12,0-.05-.01-.1-.01-.16,0-.1,0-.17.02-.23.01-.06.05-.11.1-.16.05-.05.14-.11.27-.18.13-.07.28-.13.45-.19.17-.06.35-.1.55-.14.2-.04.4-.06.6-.06.38,0,.7.04.97.13.27.09.48.21.64.38.16.17.28.37.36.62.07.25.11.53.11.86v3.56Zm-.96-2.41h-.83c-.27,0-.5.02-.69.07-.2.04-.36.11-.49.2-.13.09-.22.19-.28.32-.06.12-.09.26-.09.42,0,.27.09.49.26.65s.42.24.73.24c.25,0,.49-.06.71-.19.22-.13.44-.33.68-.59v-1.12Zm5.48,2.02c0,.11,0,.2-.02.27-.02.07-.04.12-.07.15-.03.03-.08.06-.14.09-.06.03-.13.05-.21.07-.08.02-.17.03-.25.04-.09.01-.18.02-.27.02-.27,0-.51-.04-.7-.11s-.36-.18-.48-.33-.22-.33-.27-.56c-.06-.22-.08-.49-.08-.79v-3.08h-.74c-.06,0-.11-.03-.14-.09s-.05-.16-.05-.3c0-.07,0-.14.01-.19,0-.05.02-.09.04-.13s.04-.06.06-.07c.03-.01.05-.02.08-.02h.73v-1.25s0-.05.02-.08c.01-.02.04-.04.08-.06s.09-.03.15-.04c.06,0,.14-.01.23-.01s.18,0,.24.01c.06,0,.11.02.15.04s.06.04.08.06c.02.02.02.05.02.08v1.25h1.35s.06,0,.08.02c.02.01.04.04.06.07.02.03.03.08.04.13,0,.05.01.11.01.19,0,.14-.02.24-.05.3-.04.06-.08.09-.14.09h-1.35v2.94c0,.36.05.64.16.82.11.19.3.28.58.28.09,0,.17,0,.24-.03.07-.02.13-.04.19-.06.05-.02.1-.04.14-.06.04-.02.07-.03.11-.03.02,0,.04,0,.06.01.02,0,.03.03.04.06,0,.03.02.06.03.11,0,.05.01.11.01.18Z"/><path class="k" d="m88,124.36s0,.06-.02.08c-.02.02-.04.04-.08.06-.04.02-.08.03-.15.04-.06,0-.14.01-.23.01s-.18,0-.24-.01c-.06,0-.11-.02-.15-.04s-.06-.03-.08-.06c-.02-.02-.02-.05-.02-.08v-3.09c0-.3-.02-.54-.07-.73-.05-.18-.12-.34-.21-.47-.09-.13-.21-.23-.35-.3-.14-.07-.31-.11-.5-.11-.24,0-.48.09-.73.26-.24.17-.5.42-.76.76v3.69s0,.06-.02.08c-.02.02-.04.04-.08.06-.04.02-.08.03-.15.04-.06,0-.14.01-.24.01s-.17,0-.23-.01c-.06,0-.11-.02-.15-.04-.04-.02-.06-.03-.08-.06s-.02-.05-.02-.08v-7.83s0-.06.02-.08c.01-.02.04-.04.08-.06.04-.02.09-.03.15-.04.06,0,.14-.01.23-.01s.18,0,.24.01c.06,0,.11.02.15.04.04.02.06.04.08.06.02.02.02.05.02.08v3.16c.28-.29.56-.51.84-.65.28-.14.56-.21.85-.21.35,0,.65.06.89.18.24.12.43.28.58.48.15.2.25.43.32.7.06.27.1.59.1.97v3.21Zm2.73,0s0,.06-.02.08-.04.04-.08.06c-.04.02-.08.03-.15.04-.06,0-.14.01-.24.01s-.17,0-.23-.01c-.06,0-.11-.02-.15-.04-.04-.02-.06-.03-.08-.06s-.02-.05-.02-.08v-5.27s0-.05.02-.08.04-.04.08-.06c.04-.02.09-.03.15-.04.06,0,.14-.01.23-.01s.18,0,.24.01c.06,0,.11.02.15.04.04.02.06.04.08.06s.02.05.02.08v5.27Zm.11-7.05c0,.23-.04.38-.13.46s-.24.12-.47.12-.38-.04-.47-.12c-.08-.08-.13-.23-.13-.45s.04-.38.13-.46c.09-.08.24-.12.47-.12s.38.04.47.12.13.23.13.45Zm6.08,2.02c0,.14-.02.24-.06.3-.04.06-.08.09-.14.09h-.76c.14.14.23.3.29.47.05.17.08.35.08.53,0,.3-.05.57-.15.81-.1.23-.24.43-.42.59-.18.16-.4.29-.65.37s-.53.13-.83.13c-.21,0-.42-.03-.61-.09-.19-.06-.34-.13-.45-.21-.07.07-.13.15-.17.24-.04.09-.07.19-.07.31,0,.14.06.25.19.34s.3.14.51.15l1.38.06c.26,0,.5.04.72.11.22.06.41.16.57.28.16.12.29.27.38.44.09.17.13.38.13.61,0,.24-.05.47-.15.69-.1.22-.26.41-.47.58-.21.17-.48.3-.8.39-.32.1-.71.14-1.15.14s-.79-.04-1.09-.11-.54-.17-.74-.3c-.19-.12-.33-.27-.42-.45s-.13-.36-.13-.57c0-.13.02-.25.05-.38s.08-.24.14-.35c.06-.11.14-.21.24-.31.1-.1.21-.2.33-.3-.19-.1-.33-.22-.42-.37s-.14-.31-.14-.48c0-.24.05-.45.15-.64.1-.19.22-.36.36-.5-.12-.14-.22-.31-.29-.49-.07-.18-.11-.4-.11-.66,0-.3.05-.57.15-.81.1-.24.24-.44.42-.6.18-.16.4-.29.65-.38.25-.09.53-.13.82-.13.16,0,.31,0,.45.03.14.02.27.04.39.07h1.59c.07,0,.12.03.15.1s.05.16.05.3Zm-1.51,1.39c0-.36-.1-.64-.3-.84-.2-.2-.48-.3-.84-.3-.19,0-.35.03-.49.09-.14.06-.25.15-.35.26-.09.11-.16.24-.21.38-.04.14-.07.29-.07.45,0,.35.1.62.3.82.2.2.47.3.83.3.19,0,.36-.03.5-.09.14-.06.26-.14.35-.25s.16-.23.21-.37c.04-.14.07-.29.07-.44Zm.49,4.18c0-.23-.09-.4-.28-.52s-.44-.19-.75-.2l-1.37-.05c-.12.1-.23.19-.31.28-.08.09-.14.17-.19.25-.05.08-.08.16-.1.24s-.03.16-.03.24c0,.25.13.45.39.58.26.13.62.2,1.08.2.29,0,.54-.03.74-.08s.36-.13.48-.23c.12-.09.21-.2.26-.32.05-.12.08-.25.08-.38Zm6.81-.53s0,.06-.02.08c-.02.02-.04.04-.08.06s-.08.03-.15.04c-.06,0-.14.01-.23.01s-.18,0-.24-.01-.11-.02-.15-.04c-.04-.02-.06-.03-.08-.06-.02-.02-.02-.05-.02-.08v-3.09c0-.3-.02-.54-.07-.73-.05-.18-.12-.34-.21-.47-.09-.13-.21-.23-.35-.3-.14-.07-.31-.11-.5-.11-.24,0-.48.09-.73.26-.24.17-.5.42-.76.76v3.69s0,.06-.02.08c-.02.02-.04.04-.08.06-.04.02-.08.03-.15.04-.06,0-.14.01-.24.01s-.17,0-.23-.01c-.06,0-.11-.02-.15-.04-.04-.02-.06-.03-.08-.06s-.02-.05-.02-.08v-7.83s0-.06.02-.08c.01-.02.04-.04.08-.06.04-.02.09-.03.15-.04.06,0,.14-.01.23-.01s.18,0,.24.01c.06,0,.11.02.15.04.04.02.06.04.08.06.02.02.02.05.02.08v3.16c.28-.29.56-.51.84-.65.28-.14.56-.21.85-.21.35,0,.65.06.89.18s.43.28.58.48c.15.2.25.43.32.7.06.27.1.59.1.97v3.21Z"/><path class="k" d="m110.23,123.97c0,.11,0,.2-.02.27-.02.07-.04.12-.07.15-.03.03-.08.06-.14.09-.06.03-.13.05-.21.07-.08.02-.17.03-.25.04-.09.01-.18.02-.27.02-.27,0-.51-.04-.7-.11-.2-.07-.36-.18-.48-.33s-.22-.33-.27-.56c-.06-.22-.08-.49-.08-.79v-3.08h-.74c-.06,0-.11-.03-.14-.09-.04-.06-.05-.16-.05-.3,0-.07,0-.14.01-.19,0-.05.02-.09.04-.13.02-.03.04-.06.06-.07.03-.01.05-.02.08-.02h.73v-1.25s0-.05.02-.08c.01-.02.04-.04.08-.06.04-.02.09-.03.15-.04.06,0,.14-.01.23-.01s.18,0,.24.01c.06,0,.11.02.15.04.04.02.06.04.08.06.02.02.02.05.02.08v1.25h1.35s.06,0,.08.02c.02.01.04.04.06.07s.03.08.04.13.01.11.01.19c0,.14-.02.24-.05.3-.04.06-.08.09-.14.09h-1.35v2.94c0,.36.05.64.16.82.11.19.3.28.58.28.09,0,.17,0,.24-.03.07-.02.13-.04.19-.06.05-.02.1-.04.14-.06.04-.02.07-.03.11-.03.02,0,.04,0,.06.01s.03.03.04.06c0,.03.02.06.03.11s.01.11.01.18Zm5.78-2.48c0,.15-.04.26-.11.33-.08.06-.16.1-.26.1h-3.46c0,.29.03.56.09.79.06.23.16.44.29.6.14.17.31.3.53.39.22.09.49.13.8.13.25,0,.47-.02.67-.06.2-.04.36-.09.51-.14.14-.05.26-.1.35-.14.09-.04.16-.06.21-.06.03,0,.05,0,.07.02.02.01.04.03.05.06.01.03.02.07.03.11s0,.11,0,.18c0,.05,0,.09,0,.13,0,.04,0,.07-.01.1,0,.03-.02.06-.03.08s-.03.05-.05.07c-.02.02-.09.06-.19.11s-.24.1-.41.14c-.17.05-.36.09-.58.13-.22.04-.46.06-.71.06-.43,0-.81-.06-1.14-.18-.33-.12-.6-.3-.82-.54-.22-.24-.39-.54-.5-.9s-.17-.78-.17-1.25.06-.86.18-1.22c.12-.36.29-.67.51-.92.22-.25.49-.45.8-.58.31-.13.66-.2,1.05-.2.41,0,.77.07,1.06.2.29.13.53.31.72.54.19.22.33.49.41.79.09.3.13.63.13.97v.18Zm-.97-.29c.01-.51-.1-.91-.34-1.2-.24-.29-.59-.43-1.05-.43-.24,0-.45.04-.63.13-.18.09-.33.21-.45.36-.12.15-.21.32-.28.52-.07.2-.1.4-.11.62h2.86Zm10.27,3.15s0,.06-.02.08c-.02.02-.04.04-.08.06s-.08.03-.15.04c-.06,0-.14.01-.23.01s-.18,0-.24-.01c-.06,0-.11-.02-.15-.04s-.06-.03-.08-.06-.02-.05-.02-.08v-3.21c0-.22-.02-.43-.06-.61-.04-.18-.1-.34-.19-.47-.09-.13-.2-.23-.33-.3-.13-.07-.29-.11-.47-.11-.22,0-.45.09-.67.26s-.47.42-.74.76v3.69s0,.06-.02.08c-.02.02-.04.04-.08.06-.04.02-.09.03-.15.04-.06,0-.14.01-.23.01s-.17,0-.23-.01-.12-.02-.15-.04c-.04-.02-.06-.03-.08-.06s-.02-.05-.02-.08v-3.21c0-.22-.02-.43-.06-.61-.04-.18-.11-.34-.19-.47-.09-.13-.19-.23-.33-.3-.13-.07-.29-.11-.47-.11-.22,0-.45.09-.67.26-.23.17-.47.42-.74.76v3.69s0,.06-.02.08c-.02.02-.04.04-.08.06-.04.02-.08.03-.15.04-.06,0-.14.01-.24.01s-.17,0-.23-.01c-.06,0-.11-.02-.15-.04-.04-.02-.06-.03-.08-.06s-.02-.05-.02-.08v-5.27s0-.06.02-.08c.01-.02.04-.04.07-.06.04-.02.08-.03.13-.04s.13,0,.22,0,.16,0,.21,0c.06,0,.1.02.13.04s.05.04.07.06c.01.02.02.05.02.08v.7c.3-.33.58-.58.86-.73.28-.15.56-.23.85-.23.22,0,.42.03.59.08.17.05.33.12.46.21.13.09.25.2.34.33.09.13.17.27.23.42.18-.19.34-.35.5-.49.16-.13.31-.24.46-.32s.29-.14.43-.18c.14-.04.28-.06.42-.06.34,0,.62.06.86.18s.42.28.56.48c.14.2.24.43.3.7.06.27.09.55.09.85v3.33Zm6.62-2.72c0,.46-.05.87-.15,1.24-.1.37-.25.68-.44.93-.19.26-.43.45-.72.59-.29.14-.61.21-.98.21-.16,0-.3-.02-.43-.05-.13-.03-.26-.08-.39-.15-.13-.07-.25-.15-.38-.25s-.26-.22-.4-.36v2.64s0,.06-.02.08c-.02.02-.04.04-.08.06-.04.02-.08.03-.15.04s-.14.01-.24.01-.17,0-.23-.01c-.06,0-.11-.02-.15-.04-.04-.02-.06-.04-.08-.06-.01-.02-.02-.05-.02-.08v-7.37s0-.06.02-.09c.01-.02.04-.04.07-.06.04-.02.08-.03.13-.03.05,0,.12,0,.2,0,.08,0,.15,0,.2,0s.1.02.13.03c.04.02.06.03.07.06s.02.05.02.09v.71c.16-.16.31-.31.46-.43.15-.12.3-.22.45-.3.15-.08.3-.14.46-.18s.33-.06.5-.06c.38,0,.71.07.98.22.27.15.49.35.66.61s.29.56.37.9.12.7.12,1.09Zm-1.02.11c0-.27-.02-.53-.06-.78-.04-.25-.11-.48-.21-.67-.1-.2-.23-.35-.4-.47-.17-.12-.38-.18-.63-.18-.12,0-.25.02-.37.06s-.24.1-.37.18-.26.19-.39.32c-.14.13-.28.29-.43.48v2.1c.27.32.52.57.76.74.24.17.49.26.75.26.24,0,.45-.06.62-.18.17-.12.31-.27.42-.47.11-.2.19-.41.24-.66.05-.24.08-.49.08-.73Zm6.97-.26c0,.15-.04.26-.11.33-.08.06-.16.1-.26.1h-3.46c0,.29.03.56.09.79.06.23.16.44.29.6s.31.3.53.39.49.13.8.13c.25,0,.47-.02.67-.06.2-.04.36-.09.51-.14.14-.05.26-.1.35-.14.09-.04.16-.06.21-.06.03,0,.05,0,.07.02.02.01.04.03.05.06.01.03.02.07.03.11s0,.11,0,.18c0,.05,0,.09,0,.13,0,.04,0,.07-.01.1,0,.03-.02.06-.03.08-.01.02-.03.05-.05.07-.02.02-.08.06-.19.11s-.24.1-.41.14c-.17.05-.36.09-.58.13-.22.04-.46.06-.71.06-.43,0-.81-.06-1.14-.18s-.6-.3-.82-.54c-.22-.24-.39-.54-.5-.9-.11-.36-.17-.78-.17-1.25s.06-.86.18-1.22c.12-.36.29-.67.51-.92.22-.25.49-.45.8-.58.31-.13.66-.2,1.05-.2.41,0,.77.07,1.06.2.29.13.53.31.72.54.19.22.33.49.41.79.09.3.13.63.13.97v.18Zm-.97-.29c.01-.51-.1-.91-.34-1.2-.24-.29-.59-.43-1.05-.43-.24,0-.45.04-.63.13s-.33.21-.45.36c-.12.15-.21.32-.28.52s-.1.4-.11.62h2.86Zm5.53-1.78c0,.09,0,.16,0,.22,0,.06-.01.1-.02.14-.01.03-.03.06-.04.08-.02.02-.04.03-.07.03s-.07,0-.11-.03c-.04-.02-.1-.04-.15-.05-.06-.02-.12-.03-.19-.05s-.15-.02-.23-.02c-.1,0-.19.02-.29.06-.09.04-.19.1-.3.19-.1.09-.21.21-.33.36-.11.15-.24.33-.38.55v3.47s0,.06-.02.08c-.02.02-.04.04-.08.06-.04.02-.08.03-.15.04-.06,0-.14.01-.24.01s-.17,0-.23-.01c-.06,0-.11-.02-.15-.04-.04-.02-.06-.03-.08-.06s-.02-.05-.02-.08v-5.27s0-.06.02-.08c.01-.02.04-.04.07-.06.04-.02.08-.03.13-.04.05,0,.13,0,.22,0s.16,0,.21,0,.1.02.13.04c.03.02.05.04.07.06.01.02.02.05.02.08v.77c.14-.21.28-.38.41-.52.13-.13.25-.24.36-.31.11-.08.23-.13.34-.16.11-.03.22-.04.34-.04.05,0,.11,0,.17,0s.13.02.2.03c.07.02.13.03.19.05.06.02.1.04.12.06.02.02.04.04.05.06,0,.02.01.04.02.07s0,.07.01.12c0,.05,0,.12,0,.21Zm5.07,4.93s-.02.08-.05.11c-.03.02-.07.04-.13.05-.05.01-.13.02-.24.02s-.18,0-.24-.02c-.06-.01-.1-.03-.13-.05-.03-.02-.04-.06-.04-.11v-.53c-.23.25-.49.44-.77.57-.28.14-.58.21-.9.21-.28,0-.53-.04-.75-.11-.22-.07-.42-.18-.57-.31-.16-.14-.28-.3-.37-.5-.09-.2-.13-.43-.13-.68,0-.3.06-.55.18-.77.12-.22.29-.4.52-.54.23-.14.5-.25.83-.33s.7-.11,1.11-.11h.73v-.41c0-.2-.02-.38-.06-.54-.04-.16-.11-.29-.21-.39-.1-.1-.22-.18-.37-.23-.15-.05-.34-.08-.56-.08-.24,0-.45.03-.64.08-.19.06-.36.12-.5.19-.14.07-.26.13-.36.19-.1.06-.17.08-.21.08-.03,0-.06,0-.08-.02-.02-.02-.04-.04-.06-.07-.02-.03-.03-.07-.04-.12,0-.05-.01-.1-.01-.16,0-.1,0-.17.02-.23s.05-.11.1-.16.14-.11.27-.18c.13-.07.28-.13.45-.19.17-.06.35-.1.55-.14.2-.04.4-.06.6-.06.38,0,.7.04.97.13.27.09.48.21.64.38.16.17.28.37.36.62s.11.53.11.86v3.56Zm-.96-2.41h-.83c-.27,0-.5.02-.69.07-.2.04-.36.11-.49.2-.13.09-.22.19-.28.32-.06.12-.09.26-.09.42,0,.27.09.49.26.65.17.16.42.24.73.24.25,0,.49-.06.71-.19s.44-.33.68-.59v-1.12Zm5.48,2.02c0,.11,0,.2-.02.27-.02.07-.04.12-.07.15-.03.03-.08.06-.14.09-.06.03-.13.05-.21.07s-.17.03-.25.04c-.09.01-.18.02-.27.02-.27,0-.51-.04-.7-.11-.2-.07-.36-.18-.48-.33s-.22-.33-.27-.56c-.06-.22-.08-.49-.08-.79v-3.08h-.74c-.06,0-.11-.03-.14-.09-.04-.06-.05-.16-.05-.3,0-.07,0-.14.01-.19,0-.05.02-.09.04-.13.02-.03.04-.06.06-.07.03-.01.05-.02.08-.02h.73v-1.25s0-.05.02-.08c.01-.02.04-.04.08-.06.04-.02.09-.03.15-.04.06,0,.14-.01.23-.01s.18,0,.24.01c.06,0,.11.02.15.04.04.02.06.04.08.06.02.02.02.05.02.08v1.25h1.35s.06,0,.08.02c.02.01.04.04.06.07s.03.08.04.13.01.11.01.19c0,.14-.02.24-.05.3-.04.06-.08.09-.14.09h-1.35v2.94c0,.36.05.64.16.82.11.19.3.28.58.28.09,0,.17,0,.24-.03.07-.02.13-.04.19-.06.05-.02.1-.04.14-.06.04-.02.07-.03.11-.03.02,0,.04,0,.06.01s.03.03.04.06c0,.03.02.06.03.11s.01.11.01.18Zm5.79.39s0,.06-.02.08-.04.04-.07.06c-.04.02-.08.03-.14.04-.06,0-.13.01-.21.01-.09,0-.16,0-.22-.01-.06,0-.1-.02-.13-.04s-.06-.03-.07-.06-.02-.05-.02-.08v-.7c-.3.33-.6.57-.89.73s-.59.23-.89.23c-.35,0-.65-.06-.89-.18-.24-.12-.43-.28-.58-.48-.15-.2-.25-.44-.32-.7-.06-.27-.1-.59-.1-.98v-3.2s0-.06.02-.08c.01-.02.04-.04.08-.06s.09-.03.15-.04.14,0,.23,0,.17,0,.23,0c.06,0,.11.02.15.04.04.02.06.04.08.06.02.02.02.05.02.08v3.07c0,.31.02.56.07.74s.11.34.21.47.21.23.35.3.3.11.49.11c.24,0,.48-.09.72-.26.24-.17.5-.42.76-.76v-3.69s0-.06.02-.08c.01-.02.04-.04.08-.06.04-.02.09-.03.15-.04s.14,0,.24,0,.17,0,.23,0c.06,0,.11.02.15.04.04.02.06.04.08.06.02.02.03.05.03.08v5.27Zm4.87-4.93c0,.09,0,.16,0,.22,0,.06-.01.1-.02.14-.01.03-.03.06-.04.08-.02.02-.04.03-.07.03s-.07,0-.11-.03c-.04-.02-.1-.04-.15-.05-.06-.02-.12-.03-.19-.05-.07-.02-.15-.02-.23-.02-.1,0-.19.02-.29.06-.09.04-.19.1-.3.19-.1.09-.21.21-.33.36-.11.15-.24.33-.38.55v3.47s0,.06-.02.08-.04.04-.08.06c-.04.02-.08.03-.15.04-.06,0-.14.01-.24.01s-.17,0-.23-.01c-.06,0-.11-.02-.15-.04-.04-.02-.06-.03-.08-.06-.01-.02-.02-.05-.02-.08v-5.27s0-.06.02-.08c.01-.02.04-.04.07-.06.04-.02.08-.03.13-.04s.13,0,.22,0,.16,0,.21,0c.06,0,.1.02.13.04s.05.04.07.06c.01.02.02.05.02.08v.77c.14-.21.28-.38.41-.52s.25-.24.36-.31c.11-.08.23-.13.34-.16.11-.03.22-.04.34-.04.05,0,.11,0,.17,0,.06,0,.13.02.2.03s.13.03.19.05c.06.02.1.04.12.06.02.02.04.04.05.06,0,.02.01.04.02.07,0,.03,0,.07.01.12,0,.05,0,.12,0,.21Zm5.6,2.06c0,.15-.04.26-.11.33-.08.06-.16.1-.26.1h-3.46c0,.29.03.56.09.79.06.23.16.44.29.6.14.17.31.3.53.39.22.09.49.13.8.13.25,0,.47-.02.67-.06.2-.04.36-.09.51-.14.14-.05.26-.1.35-.14.09-.04.16-.06.21-.06.03,0,.05,0,.07.02.02.01.04.03.05.06.01.03.02.07.03.11s0,.11,0,.18c0,.05,0,.09,0,.13,0,.04,0,.07-.01.1,0,.03-.02.06-.03.08s-.03.05-.05.07c-.02.02-.08.06-.19.11s-.24.1-.41.14c-.17.05-.36.09-.58.13-.22.04-.46.06-.71.06-.43,0-.81-.06-1.14-.18-.33-.12-.6-.3-.82-.54s-.39-.54-.5-.9-.17-.78-.17-1.25.06-.86.18-1.22c.12-.36.29-.67.51-.92s.49-.45.8-.58c.31-.13.66-.2,1.05-.2.41,0,.77.07,1.06.2.29.13.53.31.72.54.19.22.33.49.41.79s.13.63.13.97v.18Zm-.97-.29c.01-.51-.1-.91-.34-1.2-.24-.29-.59-.43-1.05-.43-.24,0-.45.04-.63.13-.18.09-.33.21-.45.36-.12.15-.21.32-.28.52s-.1.4-.11.62h2.86Z"/><line class="g" x1="77.36" y1="29.57" x2="124.36" y2="29.57"/><line class="g" x1="62.18" y1="55.15" x2="77.41" y2="55.15"/><line class="g" x1="77.41" y1="76.03" x2="77.41" y2="29.03"/><path class="l" d="m130.76,29.57l-7.73,2.07s1.55-.41,1.55-2.07-1.55-2.07-1.55-2.07l7.73,2.07Z"/><path class="g" d="m130.76,29.57l-7.73,2.07s1.55-.41,1.55-2.07-1.55-2.07-1.55-2.07l7.73,2.07Z"/><line class="g" x1="77.36" y1="75.73" x2="124.36" y2="75.73"/><path class="l" d="m130.76,75.73l-7.73,2.07s1.55-.41,1.55-2.07-1.55-2.07-1.55-2.07l7.73,2.07Z"/><path class="g" d="m130.76,75.73l-7.73,2.07s1.55-.41,1.55-2.07-1.55-2.07-1.55-2.07l7.73,2.07Z"/><path class="j" d="m80.53,26.01v-7.16h.95v2.94h3.72v-2.94h.95v7.16h-.95v-3.37h-3.72v3.37h-.95Z"/><path class="j" d="m90.46,27.01v.59h-3.31c0-.15.02-.29.07-.43.08-.23.22-.45.4-.67.19-.22.45-.47.81-.76.54-.45.91-.8,1.1-1.06.19-.26.29-.51.29-.74,0-.24-.09-.45-.26-.62-.17-.17-.4-.25-.68-.25-.3,0-.53.09-.71.27s-.27.42-.27.74l-.63-.06c.04-.47.21-.83.49-1.08.28-.25.66-.37,1.14-.37s.86.13,1.14.4.42.6.42.99c0,.2-.04.4-.12.59-.08.19-.22.4-.41.61-.19.21-.51.51-.95.88-.37.31-.61.52-.71.63-.1.11-.19.22-.26.33h2.46Z"/><path class="j" d="m91.46,22.52c0-1.19.32-2.12.96-2.79.64-.67,1.46-1.01,2.47-1.01.66,0,1.26.16,1.79.47.53.32.94.76,1.21,1.32.28.56.42,1.21.42,1.92s-.15,1.38-.44,1.95c-.29.57-.71,1.01-1.25,1.3-.54.29-1.12.44-1.74.44-.67,0-1.28-.16-1.81-.49-.53-.33-.93-.77-1.21-1.33-.27-.56-.41-1.16-.41-1.79Zm.98.01c0,.86.23,1.54.7,2.04.46.5,1.05.74,1.75.74s1.3-.25,1.76-.75c.46-.5.69-1.21.69-2.13,0-.58-.1-1.09-.3-1.53-.2-.43-.49-.77-.86-1.01-.38-.24-.8-.36-1.28-.36-.67,0-1.25.23-1.73.69-.48.46-.73,1.23-.73,2.31Z"/><path class="j" d="m82.88,72.8v-7.16h.95v2.94h3.72v-2.94h.95v7.16h-.95v-3.37h-3.72v3.37h-.95Z"/><path class="j" d="m92.8,73.8v.59h-3.31c0-.15.02-.29.07-.43.08-.23.22-.45.4-.67.19-.22.45-.47.81-.76.54-.45.91-.8,1.1-1.06.19-.26.29-.51.29-.74,0-.24-.09-.45-.26-.62-.17-.17-.4-.25-.68-.25-.3,0-.53.09-.71.27s-.27.42-.27.74l-.63-.06c.04-.47.21-.83.49-1.08.28-.25.66-.37,1.14-.37s.86.13,1.14.4.42.6.42.99c0,.2-.04.4-.12.59-.08.19-.22.4-.41.61-.19.21-.51.51-.95.88-.37.31-.61.52-.71.63-.1.11-.19.22-.26.33h2.46Z"/><path class="j" d="m93.8,69.31c0-1.19.32-2.12.96-2.79.64-.67,1.46-1.01,2.47-1.01.66,0,1.26.16,1.79.47.53.32.94.76,1.21,1.32.28.56.42,1.21.42,1.92s-.15,1.38-.44,1.95c-.29.57-.71,1.01-1.25,1.3-.54.29-1.12.44-1.74.44-.67,0-1.28-.16-1.81-.49-.53-.33-.93-.77-1.21-1.33-.27-.56-.41-1.16-.41-1.79Zm.98.01c0,.86.23,1.54.7,2.04.46.5,1.05.74,1.75.74s1.3-.25,1.76-.75c.46-.5.69-1.21.69-2.13,0-.58-.1-1.09-.3-1.53-.2-.43-.49-.77-.86-1.01-.38-.24-.8-.36-1.28-.36-.67,0-1.25.23-1.73.69-.48.46-.73,1.23-.73,2.31Z"/><path class="j" d="m192.52,33.03v-1.96h-1.95v-.82h1.95v-1.95h.83v1.95h1.95v.82h-1.95v1.96h-.83Z"/><path class="j" d="m189.28,85.75v-1.96h-1.95v-.82h1.95v-1.95h.83v1.95h1.95v.82h-1.95v1.96h-.83Z"/><line class="e" x1="22.44" y1="70.67" x2="35.73" y2="63"/><line class="e" x1="35.73" y1="63" x2="48.38" y2="70.3"/><line class="e" x1="37.53" y1="64.04" x2="37.53" y2="48.24"/><line class="e" x1="33.93" y1="64.04" x2="33.93" y2="48.24"/><path class="j" d="m15.25,76.45v-7.16h3.17c.64,0,1.12.06,1.45.19.33.13.6.36.8.68.2.33.3.69.3,1.08,0,.51-.16.94-.49,1.28-.33.35-.84.57-1.52.66.25.12.44.24.57.36.28.25.54.57.79.95l1.25,1.95h-1.19l-.95-1.49c-.28-.43-.5-.76-.68-.99-.18-.23-.34-.39-.48-.48-.14-.09-.29-.15-.43-.19-.11-.02-.28-.03-.53-.03h-1.1v3.18h-.95Zm.95-4h2.04c.43,0,.77-.04,1.02-.13.24-.09.43-.23.56-.43s.19-.41.19-.64c0-.34-.12-.62-.37-.83-.25-.22-.63-.33-1.16-.33h-2.27v2.37Z"/><path class="i" d="m35.29,63.25l.43-.25.43.25"/><path class="n" d="m32.3,43.03c0-1.19.32-2.12.96-2.79.64-.67,1.46-1.01,2.47-1.01.66,0,1.26.16,1.79.47.53.32.94.76,1.21,1.32.28.56.42,1.21.42,1.92,0,.73-.15,1.38-.44,1.95-.29.57-.71,1.01-1.25,1.3-.54.29-1.12.44-1.74.44-.67,0-1.28-.16-1.81-.49-.53-.33-.93-.77-1.21-1.33-.27-.56-.41-1.16-.41-1.79Zm.98.01c0,.86.23,1.54.7,2.04.46.5,1.05.74,1.75.74s1.3-.25,1.76-.75c.46-.5.69-1.21.69-2.13,0-.58-.1-1.09-.3-1.53-.2-.43-.49-.77-.86-1.01-.38-.24-.8-.36-1.28-.36-.67,0-1.25.23-1.73.69-.48.46-.73,1.23-.73,2.31Z"/><path class="m" d="m108.28,22.11c0-1.19.32-2.12.96-2.79.64-.67,1.46-1.01,2.47-1.01.66,0,1.26.16,1.79.47.53.32.94.76,1.21,1.32.28.56.42,1.21.42,1.92s-.15,1.38-.44,1.95c-.29.57-.71,1.01-1.25,1.3-.54.29-1.12.44-1.74.44-.67,0-1.28-.16-1.81-.49-.53-.33-.93-.77-1.21-1.33-.27-.56-.41-1.16-.41-1.79Zm.98.01c0,.86.23,1.54.7,2.04.46.5,1.05.74,1.75.74s1.3-.25,1.76-.75c.46-.5.69-1.21.69-2.13,0-.58-.1-1.09-.3-1.53-.2-.43-.48-.77-.86-1.01-.38-.24-.8-.36-1.28-.36-.67,0-1.25.23-1.73.69-.48.46-.73,1.23-.73,2.31Z"/><path class="m" d="m116.12,25.6v-7.16h.95v2.94h3.72v-2.94h.95v7.16h-.95v-3.37h-3.72v3.37h-.95Z"/><path class="m" d="m105.81,14.63v-.5h3.89v.5h-3.89Z"/><circle class="h" cx="107.75" cy="14.38" r="2.66"/><path class="m" d="m110.41,72.94v-7.16h.95v2.94h3.72v-2.94h.95v7.16h-.95v-3.37h-3.72v3.37h-.95Z"/><path class="m" d="m120.11,65.82v-1.37h-1.36v-.57h1.36v-1.36h.58v1.36h1.36v.57h-1.36v1.37h-.58Z"/><circle class="h" cx="120.4" cy="64.16" r="2.66"/><line class="e" x1="139.34" y1="40.23" x2="152.63" y2="32.56"/><line class="e" x1="152.63" y1="32.56" x2="165.28" y2="39.86"/><line class="e" x1="154.43" y1="33.6" x2="154.43" y2="17.8"/><line class="e" x1="150.83" y1="33.6" x2="150.83" y2="17.8"/><path class="j" d="m132.15,46.01v-7.16h3.17c.64,0,1.12.06,1.46.19.33.13.6.36.8.68.2.33.3.69.3,1.08,0,.51-.16.94-.49,1.28-.33.35-.84.57-1.52.66.25.12.44.24.57.36.28.25.54.57.79.95l1.25,1.95h-1.19l-.95-1.49c-.28-.43-.5-.76-.68-.99-.18-.23-.34-.39-.48-.48-.14-.09-.29-.15-.43-.19-.11-.02-.28-.03-.53-.03h-1.1v3.18h-.95Zm.95-4h2.04c.43,0,.77-.04,1.02-.13.24-.09.43-.23.56-.43.13-.2.19-.41.19-.64,0-.34-.12-.62-.37-.84-.25-.22-.63-.33-1.16-.33h-2.27v2.37Z"/><path class="i" d="m153.06,32.81l-.43-.25-.43.25"/><path class="n" d="m166.52,42.59c0-1.19.32-2.12.96-2.79.64-.67,1.46-1.01,2.47-1.01.66,0,1.26.16,1.79.47.53.32.94.76,1.21,1.32.28.56.42,1.21.42,1.92s-.15,1.38-.44,1.95c-.29.57-.71,1.01-1.25,1.3-.54.29-1.12.44-1.74.44-.67,0-1.28-.16-1.81-.49-.53-.33-.93-.77-1.21-1.33-.27-.56-.41-1.16-.41-1.79Zm.98.01c0,.86.23,1.54.7,2.04.46.5,1.05.74,1.75.74s1.3-.25,1.76-.75c.46-.5.69-1.21.69-2.13,0-.58-.1-1.09-.3-1.53-.2-.43-.49-.77-.86-1.01-.38-.24-.8-.36-1.28-.36-.67,0-1.25.23-1.73.69-.48.46-.73,1.23-.73,2.31Z"/><path class="j" d="m173,34.14v-.5h3.89v.5h-3.89Z"/><circle class="d" cx="174.95" cy="33.9" r="2.66"/><path class="n" d="m149.2,12.59c0-1.19.32-2.12.96-2.79.64-.67,1.46-1.01,2.47-1.01.66,0,1.26.16,1.79.47.53.32.94.76,1.21,1.32.28.56.42,1.21.42,1.92s-.15,1.38-.44,1.95c-.29.57-.71,1.01-1.25,1.3-.54.29-1.12.44-1.74.44-.67,0-1.28-.16-1.81-.49-.53-.33-.93-.77-1.21-1.33-.27-.56-.41-1.16-.41-1.79Zm.98.01c0,.86.23,1.54.7,2.04.46.5,1.05.74,1.75.74s1.3-.25,1.76-.75c.46-.5.69-1.21.69-2.13,0-.58-.1-1.09-.3-1.53-.2-.43-.49-.77-.86-1.01-.38-.24-.8-.36-1.28-.36-.67,0-1.25.23-1.73.69-.48.46-.73,1.23-.73,2.31Z"/><line class="e" x1="138.99" y1="92.94" x2="152.27" y2="85.27"/><line class="e" x1="152.27" y1="85.27" x2="164.92" y2="92.58"/><line class="e" x1="154.07" y1="86.31" x2="154.07" y2="70.51"/><line class="e" x1="150.47" y1="86.31" x2="150.47" y2="70.51"/><path class="j" d="m131.8,98.73v-7.16h3.17c.64,0,1.12.06,1.46.19.33.13.6.36.8.68.2.33.3.69.3,1.08,0,.51-.16.94-.49,1.28-.33.35-.84.57-1.52.66.25.12.44.24.57.36.28.25.54.57.79.95l1.25,1.95h-1.19l-.95-1.49c-.28-.43-.5-.76-.68-.99-.18-.23-.34-.39-.48-.48-.14-.09-.29-.15-.43-.19-.11-.02-.28-.03-.53-.03h-1.1v3.18h-.95Zm.95-4h2.04c.43,0,.77-.04,1.02-.13.24-.09.43-.23.56-.43.13-.2.19-.41.19-.64,0-.34-.12-.62-.37-.84-.25-.22-.63-.33-1.16-.33h-2.27v2.37Z"/><path class="i" d="m152.7,85.52l-.43-.25-.43.25"/><path class="n" d="m166.17,95.31c0-1.19.32-2.12.96-2.79.64-.67,1.46-1.01,2.47-1.01.66,0,1.26.16,1.79.47.53.32.94.76,1.21,1.32s.42,1.21.42,1.92-.15,1.38-.44,1.95c-.29.57-.71,1.01-1.25,1.3s-1.12.44-1.74.44c-.67,0-1.28-.16-1.81-.49-.53-.33-.93-.77-1.21-1.33-.27-.56-.41-1.16-.41-1.79Zm.98.01c0,.86.23,1.54.7,2.04.46.5,1.05.74,1.75.74s1.3-.25,1.76-.75.69-1.21.69-2.13c0-.58-.1-1.09-.3-1.53-.2-.43-.49-.77-.86-1.01-.38-.24-.8-.36-1.28-.36-.67,0-1.25.23-1.73.69s-.73,1.23-.73,2.31Z"/><path class="n" d="m174.01,98.79v-7.16h.95v2.94h3.72v-2.94h.95v7.16h-.95v-3.37h-3.72v3.37h-.95Z"/><path class="n" d="m148.85,65.31c0-1.19.32-2.12.96-2.79.64-.67,1.46-1.01,2.47-1.01.66,0,1.26.16,1.79.47s.94.76,1.21,1.32.42,1.21.42,1.92-.15,1.38-.44,1.95c-.29.57-.71,1.01-1.25,1.3-.54.29-1.12.44-1.74.44-.67,0-1.28-.16-1.81-.49-.53-.33-.93-.77-1.21-1.33-.27-.56-.41-1.16-.41-1.79Zm.98.01c0,.86.23,1.54.7,2.04s1.05.74,1.75.74,1.3-.25,1.76-.75.69-1.21.69-2.13c0-.58-.1-1.09-.3-1.53-.2-.43-.49-.77-.86-1.01-.38-.24-.8-.36-1.28-.36-.67,0-1.25.23-1.73.69-.48.46-.73,1.23-.73,2.31Z"/><path class="o" d="m50.45,76.45v-7.16h.97l3.76,5.62v-5.62h.91v7.16h-.97l-3.76-5.62v5.62h-.91Z"/><path class="o" d="m57.09,76.45v-7.16h.95v2.94h3.72v-2.94h.95v7.16h-.95v-3.37h-3.72v3.37h-.95Z"/><path class="o" d="m67.02,77.45v.59h-3.31c0-.15.02-.29.07-.43.08-.23.22-.45.4-.67.19-.22.45-.47.81-.76.54-.45.91-.8,1.1-1.06.19-.26.29-.51.29-.74,0-.24-.09-.45-.26-.62-.17-.17-.4-.25-.68-.25-.3,0-.53.09-.71.27s-.27.42-.27.74l-.63-.07c.04-.47.21-.83.49-1.08.28-.25.66-.37,1.14-.37s.86.13,1.14.4.42.6.42.99c0,.2-.04.4-.12.59-.08.19-.22.4-.41.61-.19.21-.51.51-.95.88-.37.31-.61.52-.71.63-.1.11-.19.22-.26.33h2.46Z"/><rect class="f" x=".5" y=".5" width="237.51" height="134.43" rx="6.5" ry="6.5"/></g></svg>