<?xml version="1.0" encoding="UTF-8"?><svg id="b" xmlns="http://www.w3.org/2000/svg" viewBox="0 0 238.51 103.18"><defs><style>.d,.e,.f,.g{stroke-miterlimit:10;}.d,.e,.f,.g,.h{fill:none;}.d,.h{stroke:#000;}.e{stroke:#024f9e;}.f{stroke:#729e19;}.g{stroke:#90c;}.h{stroke-miterlimit:5;}.i,.j,.k,.l,.m{stroke-width:0px;}.j{fill:#729e19;}.k{fill:#90c;}.l{fill:red;}.m{fill:blue;}</style></defs><g id="c"><rect class="e" x=".5" y=".5" width="237.51" height="102.18" rx="6.5" ry="6.5"/><line class="f" x1="68.6" y1="26.21" x2="115.6" y2="26.21"/><path class="j" d="m122,26.21l-7.73,2.07s1.55-.41,1.55-2.07-1.55-2.07-1.55-2.07l7.73,2.07Z"/><path class="f" d="m122,26.21l-7.73,2.07s1.55-.41,1.55-2.07-1.55-2.07-1.55-2.07l7.73,2.07Z"/><path class="i" d="m74.12,23.27v-7.16h.95v2.94h3.72v-2.94h.95v7.16h-.95v-3.37h-3.72v3.37h-.95Z"/><path class="i" d="m84.05,24.27v.59h-3.31c0-.15.02-.29.07-.43.08-.23.22-.45.4-.67.19-.22.45-.47.81-.76.54-.45.91-.8,1.1-1.06.19-.26.29-.51.29-.74,0-.24-.09-.45-.26-.62-.17-.17-.4-.25-.68-.25-.3,0-.53.09-.71.27s-.27.42-.27.74l-.63-.06c.04-.47.21-.83.49-1.08.28-.25.66-.37,1.14-.37s.86.13,1.14.4.42.6.42.99c0,.2-.04.4-.12.59-.08.19-.22.4-.41.61-.19.21-.51.51-.95.88-.37.31-.61.52-.71.63-.1.11-.19.22-.26.33h2.46Z"/><path class="i" d="m85.05,19.79c0-1.19.32-2.12.96-2.79.64-.67,1.46-1.01,2.47-1.01.66,0,1.26.16,1.79.47.53.32.94.76,1.21,1.32.28.56.42,1.21.42,1.92s-.15,1.38-.44,1.95c-.29.57-.71,1.01-1.25,1.3-.54.29-1.12.44-1.74.44-.67,0-1.28-.16-1.81-.49-.53-.33-.93-.77-1.21-1.33-.27-.56-.41-1.16-.41-1.79Zm.98.01c0,.86.23,1.54.7,2.04.46.5,1.05.74,1.75.74s1.3-.25,1.76-.75c.46-.5.69-1.21.69-2.13,0-.58-.1-1.09-.3-1.53-.2-.43-.49-.77-.86-1.01-.38-.24-.8-.36-1.28-.36-.67,0-1.25.23-1.73.69-.48.46-.73,1.23-.73,2.31Z"/><path class="k" d="m101.65,23.41v-7.16h.95v2.94h3.72v-2.94h.95v7.16h-.95v-3.37h-3.72v3.37h-.95Z"/><path class="k" d="m111.35,16.29v-1.37h-1.36v-.57h1.36v-1.36h.58v1.36h1.36v.57h-1.36v1.37h-.58Z"/><circle class="g" cx="111.64" cy="14.64" r="2.66"/><line class="d" x1="23.01" y1="25.61" x2="33.84" y2="25.61"/><line class="d" x1="43.24" y1="25.61" x2="54.19" y2="25.61"/><line class="d" x1="43.24" y1="22.01" x2="54.19" y2="22.01"/><line class="d" x1="43.24" y1="29.21" x2="54.19" y2="29.21"/><path class="i" d="m15.45,29.07v-7.16h3.17c.64,0,1.12.06,1.46.19.33.13.6.36.8.68.2.33.3.69.3,1.08,0,.51-.16.94-.49,1.28-.33.35-.84.57-1.52.66.25.12.44.24.57.36.28.25.54.57.79.95l1.25,1.95h-1.19l-.95-1.49c-.28-.43-.5-.76-.68-.99-.18-.23-.34-.39-.48-.48-.14-.09-.29-.15-.43-.19-.11-.02-.28-.03-.53-.03h-1.1v3.18h-.95Zm.95-4h2.04c.43,0,.77-.04,1.02-.13.24-.09.43-.23.56-.43.13-.2.19-.41.19-.64,0-.34-.12-.62-.37-.83-.25-.22-.63-.33-1.16-.33h-2.27v2.37Z"/><path class="i" d="m40.82,26.62l.95.24c-.2.78-.56,1.37-1.07,1.78-.52.41-1.15.61-1.89.61s-1.4-.16-1.88-.47c-.48-.31-.85-.77-1.1-1.36-.25-.6-.38-1.24-.38-1.92,0-.75.14-1.4.43-1.95.28-.56.69-.98,1.22-1.26s1.1-.43,1.74-.43c.72,0,1.32.18,1.81.55.49.36.83.88,1.02,1.54l-.93.22c-.17-.52-.41-.9-.72-1.14-.32-.24-.71-.36-1.19-.36-.55,0-1.01.13-1.38.4-.37.26-.63.62-.78,1.06s-.22.9-.22,1.37c0,.61.09,1.14.27,1.59.18.45.45.79.83,1.02.37.22.78.34,1.22.34.53,0,.98-.15,1.35-.46.37-.31.62-.76.75-1.36Z"/><path class="m" d="m55.79,29.07v-7.16h.97l3.76,5.62v-5.62h.91v7.16h-.97l-3.76-5.62v5.62h-.91Z"/><path class="i" d="m95.75,23.23l2.08-7.4h.7l-2.07,7.4h-.71Z"/><line class="f" x1="119.58" y1="76.28" x2="166.59" y2="76.28"/><path class="j" d="m172.99,76.28l-7.73,2.07s1.55-.41,1.55-2.07-1.55-2.07-1.55-2.07l7.73,2.07Z"/><path class="f" d="m172.99,76.28l-7.73,2.07s1.55-.41,1.55-2.07-1.55-2.07-1.55-2.07l7.73,2.07Z"/><path class="i" d="m125.1,73.34v-7.16h.95v2.94h3.72v-2.94h.95v7.16h-.95v-3.37h-3.72v3.37h-.95Z"/><path class="i" d="m135.03,74.34v.59h-3.31c0-.15.02-.29.07-.43.08-.23.22-.45.4-.67.19-.22.45-.47.81-.76.54-.45.91-.8,1.1-1.06.19-.26.29-.51.29-.74,0-.24-.09-.45-.26-.62-.17-.17-.4-.25-.68-.25-.3,0-.53.09-.71.27s-.27.42-.27.74l-.63-.06c.04-.47.21-.83.49-1.08.28-.25.66-.37,1.14-.37s.86.13,1.14.4.42.6.42.99c0,.2-.04.4-.12.59-.08.19-.22.4-.41.61-.19.21-.51.51-.95.88-.37.31-.61.52-.71.63-.1.11-.19.22-.26.33h2.46Z"/><path class="i" d="m136.03,69.85c0-1.19.32-2.12.96-2.79.64-.67,1.46-1.01,2.47-1.01.66,0,1.26.16,1.79.47.53.32.94.76,1.21,1.32.28.56.42,1.21.42,1.92s-.15,1.38-.44,1.95c-.29.57-.71,1.01-1.25,1.3-.54.29-1.12.44-1.74.44-.67,0-1.28-.16-1.81-.49-.53-.33-.93-.77-1.21-1.33-.27-.56-.41-1.16-.41-1.79Zm.98.01c0,.86.23,1.54.7,2.04.46.5,1.05.74,1.75.74s1.3-.25,1.76-.75c.46-.5.69-1.21.69-2.13,0-.58-.1-1.09-.3-1.53-.2-.43-.49-.77-.86-1.01-.38-.24-.8-.36-1.28-.36-.67,0-1.25.23-1.73.69-.48.46-.73,1.23-.73,2.31Z"/><path class="k" d="m152.63,73.48v-7.16h.95v2.94h3.72v-2.94h.95v7.16h-.95v-3.37h-3.72v3.37h-.95Z"/><path class="k" d="m162.34,66.36v-1.37h-1.36v-.57h1.36v-1.36h.58v1.36h1.36v.57h-1.36v1.37h-.58Z"/><circle class="g" cx="162.63" cy="64.71" r="2.66"/><path class="i" d="m146.73,73.29l2.08-7.4h.7l-2.07,7.4h-.71Z"/><line class="d" x1="131" y1="39.64" x2="144.28" y2="31.97"/><line class="d" x1="144.28" y1="31.97" x2="157.39" y2="39.54"/><line class="d" x1="146.08" y1="33.01" x2="146.08" y2="17.21"/><line class="d" x1="142.48" y1="33.01" x2="142.48" y2="17.21"/><path class="i" d="m123.8,45.43v-7.16h3.17c.64,0,1.12.06,1.46.19.33.13.6.36.8.68.2.33.3.69.3,1.08,0,.51-.16.94-.49,1.28-.33.35-.84.57-1.52.66.25.12.44.24.57.36.28.25.54.57.79.95l1.25,1.95h-1.19l-.95-1.49c-.28-.43-.5-.76-.68-.99-.18-.23-.34-.39-.48-.48-.14-.09-.29-.15-.43-.19-.11-.02-.28-.03-.53-.03h-1.1v3.18h-.95Zm.95-4h2.04c.43,0,.77-.04,1.02-.13.24-.09.43-.23.56-.43.13-.2.19-.41.19-.64,0-.34-.12-.62-.37-.83-.25-.22-.63-.33-1.16-.33h-2.27v2.37Z"/><path class="h" d="m143.85,32.22l.43-.25.43.25"/><path class="l" d="m140.86,12c0-1.19.32-2.12.96-2.79.64-.67,1.46-1.01,2.47-1.01.66,0,1.26.16,1.79.47.53.32.94.76,1.21,1.32.28.56.42,1.21.42,1.92s-.15,1.38-.44,1.95c-.29.57-.71,1.01-1.25,1.3-.54.29-1.12.44-1.74.44-.67,0-1.28-.16-1.81-.49-.53-.33-.93-.77-1.21-1.33-.27-.56-.41-1.16-.41-1.79Zm.98.01c0,.86.23,1.54.7,2.04.46.5,1.05.74,1.75.74s1.3-.25,1.76-.75c.46-.5.69-1.21.69-2.13,0-.58-.1-1.09-.3-1.53s-.49-.77-.86-1.01c-.38-.24-.8-.36-1.28-.36-.67,0-1.25.23-1.73.69-.48.46-.73,1.23-.73,2.31Z"/><path class="i" d="m158.78,45.43v-7.16h.97l3.76,5.62v-5.62h.91v7.16h-.97l-3.76-5.62v5.62h-.91Z"/><path class="i" d="m165.42,45.43v-7.16h.95v2.94h3.72v-2.94h.95v7.16h-.95v-3.37h-3.72v3.37h-.95Z"/><path class="i" d="m175.35,46.43v.59h-3.31c0-.15.02-.29.07-.43.08-.23.22-.45.41-.67.19-.22.45-.47.8-.76.54-.45.91-.8,1.1-1.06.19-.26.29-.51.29-.74,0-.24-.09-.45-.26-.62-.17-.17-.4-.25-.68-.25-.3,0-.53.09-.71.27-.18.18-.27.42-.27.74l-.63-.06c.04-.47.21-.83.49-1.08.28-.25.66-.37,1.14-.37s.86.13,1.14.4.42.6.42.99c0,.2-.04.4-.12.59-.08.19-.22.4-.41.61-.19.21-.51.51-.95.88-.37.31-.61.52-.71.63-.1.11-.19.22-.26.33h2.46Z"/><line class="d" x1="182.42" y1="89.01" x2="195.7" y2="81.34"/><line class="d" x1="195.7" y1="81.34" x2="208.36" y2="88.64"/><line class="d" x1="197.5" y1="82.38" x2="197.5" y2="66.58"/><line class="d" x1="193.9" y1="82.38" x2="193.9" y2="66.58"/><path class="i" d="m175.23,94.79v-7.16h3.17c.64,0,1.12.06,1.46.19.33.13.6.36.8.68.2.33.3.69.3,1.08,0,.51-.16.94-.49,1.28-.33.35-.84.57-1.52.66.25.12.44.24.57.36.28.25.54.57.79.95l1.25,1.95h-1.19l-.95-1.49c-.28-.43-.5-.76-.68-.99-.18-.23-.34-.39-.48-.48s-.29-.15-.43-.19c-.11-.02-.28-.03-.53-.03h-1.1v3.18h-.95Zm.95-4h2.04c.43,0,.77-.04,1.02-.13s.43-.23.56-.43c.13-.2.19-.41.19-.64,0-.34-.12-.62-.37-.83s-.63-.33-1.16-.33h-2.27v2.37Z"/><path class="h" d="m195.27,81.59l.43-.25.43.25"/><path class="l" d="m192.28,61.37c0-1.19.32-2.12.96-2.79.64-.67,1.46-1.01,2.47-1.01.66,0,1.26.16,1.79.47.53.32.94.76,1.21,1.32.28.56.42,1.21.42,1.92s-.15,1.38-.44,1.95c-.29.57-.71,1.01-1.25,1.3-.54.29-1.12.44-1.74.44-.67,0-1.28-.16-1.81-.49s-.93-.77-1.21-1.33c-.27-.56-.41-1.16-.41-1.79Zm.98.01c0,.86.23,1.54.7,2.04s1.05.74,1.75.74,1.3-.25,1.76-.75c.46-.5.69-1.21.69-2.13,0-.58-.1-1.09-.3-1.53-.2-.43-.48-.77-.86-1.01-.38-.24-.8-.36-1.28-.36-.67,0-1.25.23-1.73.69s-.73,1.23-.73,2.31Z"/><path class="l" d="m209.6,91.37c0-1.19.32-2.12.96-2.79s1.46-1.01,2.47-1.01c.66,0,1.26.16,1.79.47s.94.76,1.21,1.32c.28.56.42,1.21.42,1.92s-.15,1.38-.44,1.95c-.29.57-.71,1.01-1.25,1.3s-1.12.44-1.74.44c-.67,0-1.28-.16-1.81-.49-.53-.33-.93-.77-1.21-1.33-.27-.56-.41-1.16-.41-1.79Zm.98.01c0,.86.23,1.54.7,2.04s1.05.74,1.75.74,1.3-.25,1.76-.75c.46-.5.69-1.21.69-2.13,0-.58-.1-1.09-.3-1.53-.2-.43-.49-.77-.86-1.01-.38-.24-.8-.36-1.28-.36-.67,0-1.25.23-1.73.69s-.73,1.23-.73,2.31Z"/><path class="l" d="m217.45,94.86v-7.16h.95v2.94h3.72v-2.94h.95v7.16h-.95v-3.37h-3.72v3.37h-.95Z"/></g></svg>