<?xml version="1.0" encoding="UTF-8"?><svg id="b" xmlns="http://www.w3.org/2000/svg" viewBox="0 0 238.51 84.14"><defs><style>.d,.e,.f{stroke-miterlimit:10;}.d,.e,.f,.g{fill:none;}.d,.g{stroke:#000;}.e{stroke:#024f9e;}.f{stroke:#729e19;}.g{stroke-miterlimit:5;}.h,.i,.j,.k{stroke-width:0px;}.i{fill:#730073;}.j{fill:#729e19;}.k{fill:#9e2219;}</style></defs><g id="c"><line class="f" x1="75.18" y1="45.49" x2="141.5" y2="45.49"/><path class="f" d="m147.9,45.49l-7.73,2.07s1.55-.41,1.55-2.07-1.55-2.07-1.55-2.07l7.73,2.07Z"/><path class="j" d="m147.9,45.49l-7.73,2.07s1.55-.41,1.55-2.07-1.55-2.07-1.55-2.07l7.73,2.07Z"/><path class="i" d="m105.5,54.76c0-.96.27-1.67.8-2.13.45-.38.99-.58,1.63-.58.71,0,1.3.23,1.75.7.45.47.68,1.11.68,1.94,0,.67-.1,1.19-.3,1.57-.2.38-.49.68-.87.89-.38.21-.8.32-1.25.32-.73,0-1.31-.23-1.76-.7s-.67-1.14-.67-2.01Zm.9,0c0,.66.14,1.16.43,1.49.29.33.65.5,1.09.5s.8-.17,1.09-.5c.29-.33.43-.84.43-1.52,0-.64-.15-1.13-.44-1.46-.29-.33-.65-.5-1.09-.5s-.8.16-1.09.49c-.29.33-.43.83-.43,1.49Zm4.98,2.59v-5.19h.79v.79c.2-.37.39-.61.56-.73.17-.12.36-.18.56-.18.3,0,.6.09.9.28l-.3.82c-.21-.13-.43-.19-.64-.19-.19,0-.36.06-.52.17-.15.12-.26.28-.33.48-.1.31-.15.65-.15,1.03v2.71h-.88Z"/><path class="i" d="m93.46,67.78v-7.16h.95v2.94h3.72v-2.94h.95v7.16h-.95v-3.37h-3.72v3.37h-.95Z"/><path class="i" d="m103.39,68.78v.59h-3.31c0-.15.02-.29.07-.43.08-.23.22-.45.4-.67.19-.22.45-.47.8-.76.54-.45.91-.8,1.1-1.06.19-.26.29-.51.29-.74,0-.24-.09-.45-.26-.62-.17-.17-.4-.25-.68-.25-.3,0-.53.09-.71.27s-.27.42-.27.74l-.63-.06c.04-.47.21-.83.49-1.08.28-.25.66-.37,1.14-.37s.86.13,1.14.4c.28.27.42.6.42.99,0,.2-.04.4-.12.59-.08.19-.22.4-.41.61-.19.21-.51.51-.95.88-.37.31-.61.52-.71.63-.1.11-.19.22-.26.33h2.46Z"/><path class="i" d="m109.77,65.27l.95.24c-.2.78-.56,1.37-1.07,1.78-.52.41-1.15.61-1.89.61s-1.4-.16-1.88-.47c-.48-.31-.85-.77-1.1-1.36-.25-.6-.38-1.24-.38-1.92,0-.75.14-1.4.43-1.95.28-.55.69-.98,1.22-1.26.53-.29,1.1-.43,1.74-.43.72,0,1.32.18,1.81.55.49.36.83.88,1.02,1.54l-.93.22c-.17-.52-.41-.9-.72-1.14-.32-.24-.71-.36-1.19-.36-.55,0-1.01.13-1.38.4-.37.26-.63.62-.78,1.06s-.22.9-.22,1.37c0,.61.09,1.14.27,1.59.18.45.45.79.83,1.02.37.22.78.34,1.22.34.53,0,.98-.15,1.35-.46.37-.31.62-.76.75-1.36Zm1.99,2.51v-5.19h.79v.79c.2-.37.39-.61.56-.73.17-.12.36-.18.56-.18.3,0,.6.09.9.28l-.3.82c-.21-.13-.43-.19-.64-.19-.19,0-.36.06-.52.17s-.26.28-.33.48c-.1.31-.15.65-.15,1.03v2.71h-.88Zm3.16-3.49c0-1.19.32-2.12.96-2.79.64-.67,1.46-1.01,2.47-1.01.66,0,1.26.16,1.79.47.53.32.94.76,1.21,1.32.28.56.42,1.21.42,1.92s-.15,1.38-.44,1.95c-.29.57-.71,1.01-1.25,1.3-.54.29-1.12.44-1.74.44-.67,0-1.28-.16-1.81-.49-.53-.33-.93-.77-1.21-1.33-.27-.56-.41-1.16-.41-1.79Zm.98.01c0,.86.23,1.54.7,2.04s1.05.74,1.75.74,1.3-.25,1.76-.75c.46-.5.69-1.21.69-2.13,0-.58-.1-1.09-.3-1.53-.2-.43-.49-.77-.86-1.01-.38-.24-.8-.36-1.28-.36-.67,0-1.25.23-1.73.69-.48.46-.73,1.23-.73,2.31Z"/><path class="i" d="m124.95,69.37v-1.2h-2.17v-.56l2.29-3.25h.5v3.25h.68v.56h-.68v1.2h-.62Zm0-1.76v-2.26l-1.57,2.26h1.57Z"/><line class="d" x1="42.52" y1="33.49" x2="25.19" y2="43.49"/><line class="d" x1="25.19" y1="43.49" x2="25.19" y2="63.49"/><line class="d" x1="28.79" y1="45.57" x2="28.79" y2="61.41"/><line class="d" x1="25.19" y1="63.49" x2="42.52" y2="73.49"/><line class="d" x1="42.52" y1="73.49" x2="59.84" y2="63.49"/><line class="d" x1="42.52" y1="69.33" x2="56.24" y2="61.41"/><line class="d" x1="59.84" y1="63.49" x2="59.84" y2="43.49"/><line class="d" x1="59.84" y1="43.49" x2="42.52" y2="33.49"/><line class="d" x1="56.24" y1="45.57" x2="42.52" y2="37.64"/><line class="d" x1="42.52" y1="33.49" x2="42.52" y2="18.73"/><path class="g" d="m42.95,33.74l-.43-.25v-.5"/><path class="k" d="m44.73,14.5l.95.24c-.2.78-.56,1.37-1.07,1.78-.52.41-1.15.61-1.89.61s-1.4-.16-1.88-.47c-.48-.31-.85-.77-1.1-1.36-.25-.6-.38-1.24-.38-1.92,0-.75.14-1.4.43-1.95.28-.55.69-.98,1.22-1.26.53-.29,1.1-.43,1.74-.43.72,0,1.32.18,1.81.55.49.36.83.88,1.02,1.54l-.93.22c-.17-.52-.41-.9-.72-1.14-.32-.24-.71-.36-1.19-.36-.55,0-1.01.13-1.38.4-.37.26-.63.62-.78,1.06-.15.44-.22.9-.22,1.37,0,.61.09,1.14.27,1.59.18.45.45.79.83,1.02.37.22.78.34,1.22.34.53,0,.98-.15,1.35-.46.37-.31.62-.76.75-1.36Z"/><path class="k" d="m46.68,17v-7.16h.95v2.94h3.72v-2.94h.95v7.16h-.95v-3.37h-3.72v3.37h-.95Z"/><path class="k" d="m53.29,17.27l.62-.08c.07.35.19.6.36.75.17.15.38.23.62.23.29,0,.53-.1.73-.3.2-.2.3-.45.3-.75s-.09-.52-.28-.7c-.18-.18-.42-.28-.7-.28-.12,0-.26.02-.43.07l.07-.54s.07,0,.1,0c.26,0,.5-.07.71-.21.21-.14.31-.35.31-.63,0-.23-.08-.41-.23-.56-.15-.15-.35-.22-.59-.22s-.44.08-.6.23c-.16.15-.26.38-.31.68l-.62-.11c.08-.41.25-.73.51-.96.27-.23.6-.34.99-.34.27,0,.53.06.76.18.23.12.41.28.53.48.12.2.18.42.18.65s-.06.41-.17.59-.29.32-.52.42c.3.07.53.21.69.43.16.22.25.48.25.81,0,.44-.16.81-.48,1.11s-.72.46-1.21.46c-.44,0-.8-.13-1.1-.39-.29-.26-.46-.6-.5-1.02Z"/><path class="g" d="m25.19,43.99v-.5l.43-.25"/><path class="g" d="m59.84,43.99v-.5l-.43-.25"/><path class="g" d="m25.19,62.99v.5l.43.25"/><path class="g" d="m59.84,62.99v.5l-.43.25"/><path class="g" d="m42.95,73.24l-.43.25-.43-.25"/><path class="h" d="m92.22,38.28v-7.16h.95v3.55l3.55-3.55h1.28l-3,2.9,3.13,4.26h-1.25l-2.55-3.62-1.17,1.14v2.48h-.95Z"/><path class="h" d="m99.14,38.28v-7.16h1.43l1.69,5.07c.16.47.27.83.34,1.06.08-.26.21-.64.38-1.15l1.71-4.98h1.27v7.16h-.91v-5.99l-2.08,5.99h-.85l-2.07-6.09v6.09h-.91Zm8.25,0v-5.19h.79v.74c.38-.57.93-.85,1.65-.85.31,0,.6.06.86.17.26.11.46.26.59.44.13.18.22.4.27.65.03.16.05.45.05.85v3.19h-.88v-3.15c0-.36-.03-.63-.1-.8-.07-.18-.19-.32-.36-.42-.17-.11-.38-.16-.61-.16-.37,0-.7.12-.97.36-.27.24-.41.69-.41,1.35v2.83h-.88Z"/><path class="h" d="m112.6,34.79c0-1.19.32-2.12.96-2.79.64-.67,1.46-1.01,2.47-1.01.66,0,1.26.16,1.79.47.53.32.94.76,1.21,1.32.28.56.42,1.21.42,1.92s-.15,1.38-.44,1.95c-.29.57-.71,1.01-1.25,1.3-.54.29-1.12.44-1.74.44-.67,0-1.28-.16-1.81-.49-.53-.33-.93-.77-1.21-1.33-.27-.56-.41-1.16-.41-1.79Zm.98.01c0,.86.23,1.54.7,2.04.46.5,1.05.74,1.75.74s1.3-.25,1.76-.75c.46-.5.69-1.21.69-2.13,0-.58-.1-1.09-.3-1.53-.2-.43-.49-.77-.86-1.01-.38-.24-.8-.36-1.28-.36-.67,0-1.25.23-1.73.69-.48.46-.73,1.23-.73,2.31Z"/><path class="h" d="m122.62,39.87v-1.2h-2.17v-.56l2.29-3.25h.5v3.25h.68v.56h-.68v1.2h-.62Zm0-1.76v-2.26l-1.57,2.26h1.57Z"/><line class="d" x1="187.85" y1="34.41" x2="170.53" y2="44.41"/><line class="d" x1="170.53" y1="44.41" x2="170.53" y2="64.41"/><line class="d" x1="174.13" y1="46.49" x2="174.13" y2="62.33"/><line class="d" x1="170.53" y1="64.41" x2="187.85" y2="74.41"/><line class="d" x1="187.85" y1="74.41" x2="205.17" y2="64.41"/><line class="d" x1="187.85" y1="70.26" x2="201.57" y2="62.33"/><line class="d" x1="205.17" y1="64.41" x2="205.17" y2="44.41"/><line class="d" x1="205.17" y1="44.41" x2="187.85" y2="34.41"/><line class="d" x1="201.57" y1="46.49" x2="187.85" y2="38.57"/><line class="d" x1="187.85" y1="34.41" x2="187.85" y2="19.65"/><path class="g" d="m188.28,34.66l-.43-.25v-.5"/><path class="k" d="m190.07,15.42l.95.24c-.2.78-.56,1.37-1.07,1.78-.52.41-1.15.61-1.89.61s-1.4-.16-1.88-.47c-.48-.31-.85-.77-1.1-1.36-.25-.6-.38-1.24-.38-1.92,0-.75.14-1.4.43-1.95.28-.56.69-.98,1.22-1.26.53-.29,1.1-.43,1.74-.43.72,0,1.32.18,1.81.55.49.36.83.88,1.02,1.54l-.93.22c-.17-.52-.41-.9-.72-1.14-.32-.24-.71-.36-1.19-.36-.55,0-1.01.13-1.38.4-.37.26-.63.62-.78,1.06-.15.44-.22.9-.22,1.37,0,.61.09,1.14.27,1.59.18.45.45.79.83,1.02s.78.34,1.22.34c.53,0,.98-.15,1.35-.46.37-.31.62-.76.75-1.36Z"/><path class="k" d="m192.01,14.44c0-1.19.32-2.12.96-2.79.64-.67,1.46-1.01,2.47-1.01.66,0,1.26.16,1.79.47.53.32.94.76,1.21,1.32.28.56.42,1.21.42,1.92,0,.73-.15,1.38-.44,1.95-.29.57-.71,1.01-1.25,1.3-.54.29-1.12.44-1.74.44-.67,0-1.28-.16-1.81-.49-.53-.33-.93-.77-1.21-1.33-.27-.56-.41-1.16-.41-1.79Zm.98.01c0,.86.23,1.54.7,2.04.46.5,1.05.74,1.75.74s1.3-.25,1.76-.75c.46-.5.69-1.21.69-2.13,0-.58-.1-1.09-.3-1.53-.2-.43-.49-.77-.86-1.01-.38-.24-.8-.36-1.28-.36-.67,0-1.25.23-1.73.69-.48.46-.73,1.23-.73,2.31Z"/><path class="k" d="m199.86,14.44c0-1.19.32-2.12.96-2.79.64-.67,1.46-1.01,2.47-1.01.66,0,1.26.16,1.79.47.53.32.94.76,1.21,1.32.28.56.42,1.21.42,1.92s-.15,1.38-.44,1.95c-.29.57-.71,1.01-1.25,1.3-.54.29-1.12.44-1.74.44-.67,0-1.28-.16-1.81-.49-.53-.33-.93-.77-1.21-1.33s-.41-1.16-.41-1.79Zm.98.01c0,.86.23,1.54.7,2.04.46.5,1.05.74,1.75.74s1.3-.25,1.76-.75c.46-.5.69-1.21.69-2.13,0-.58-.1-1.09-.3-1.53-.2-.43-.49-.77-.86-1.01-.38-.24-.8-.36-1.28-.36-.67,0-1.25.23-1.73.69-.48.46-.73,1.23-.73,2.31Z"/><path class="k" d="m207.7,17.93v-7.16h.95v2.94h3.72v-2.94h.95v7.16h-.95v-3.37h-3.72v3.37h-.95Z"/><path class="g" d="m205.17,44.91v-.5l-.43-.25"/><path class="g" d="m170.53,44.91v-.5l.43-.25"/><path class="g" d="m205.17,63.91v.5l-.43.25"/><path class="g" d="m170.53,63.91v.5l.43.25"/><path class="g" d="m188.28,74.16l-.43.25-.43-.25"/><rect class="e" x=".5" y=".5" width="237.51" height="83.14" rx="6.5" ry="6.5"/></g></svg>