<?xml version="1.0" encoding="UTF-8"?><svg id="b" xmlns="http://www.w3.org/2000/svg" viewBox="0 0 238.51 66.26"><defs><style>.d{stroke:#000;}.d,.e,.f{fill:none;stroke-miterlimit:10;}.e{stroke:#024f9e;}.f{stroke:#729e19;}.g,.h,.i{stroke-width:0px;}.h{fill:#729e19;}.i{fill:#9e2219;}</style></defs><g id="c"><line class="f" x1="142.99" y1="18.21" x2="180.38" y2="18.21"/><path class="f" d="m186.78,18.21l-7.73,2.07s1.55-.41,1.55-2.07-1.55-2.07-1.55-2.07l7.73,2.07Z"/><path class="h" d="m186.78,18.21l-7.73,2.07s1.55-.41,1.55-2.07-1.55-2.07-1.55-2.07l7.73,2.07Z"/><path class="g" d="m118.19,47.94v-1.96h-1.95v-.82h1.95v-1.95h.83v1.95h1.95v.82h-1.95v1.96h-.83Z"/><path class="g" d="m133.38,48.25v.84h-4.73c0-.21.03-.42.1-.61.12-.32.31-.64.58-.95.27-.31.65-.67,1.15-1.08.78-.64,1.3-1.14,1.58-1.52.27-.37.41-.73.41-1.06s-.12-.64-.37-.88c-.25-.24-.57-.36-.97-.36-.42,0-.76.13-1.02.38-.25.25-.38.61-.39,1.05l-.9-.09c.06-.67.29-1.19.7-1.54.4-.35.95-.53,1.63-.53s1.23.19,1.63.57c.4.38.6.85.6,1.42,0,.29-.06.57-.18.84-.12.28-.31.57-.58.87-.27.31-.72.73-1.36,1.26-.53.44-.87.74-1.02.9-.15.16-.27.32-.37.48h3.51Zm.51.84l2.75-7.16h1.02l2.93,7.16h-1.08l-.83-2.17h-2.99l-.79,2.17h-1.01Zm2.07-2.94h2.43l-.75-1.98c-.23-.6-.4-1.1-.51-1.48-.09.46-.22.91-.39,1.37l-.79,2.1Zm5.12,3.37l.85.13c.04.26.14.46.3.58.22.16.52.24.89.24.41,0,.72-.08.94-.24.22-.16.37-.39.45-.68.05-.18.07-.56.06-1.13-.38.45-.86.68-1.44.68-.71,0-1.26-.26-1.66-.77-.39-.51-.59-1.13-.59-1.85,0-.49.09-.95.27-1.37.18-.42.44-.74.78-.97.34-.23.74-.34,1.2-.34.61,0,1.12.25,1.51.74v-.62h.81v4.48c0,.81-.08,1.38-.25,1.72-.16.34-.42.6-.78.8-.36.2-.8.29-1.32.29-.62,0-1.12-.14-1.5-.42-.38-.28-.56-.7-.55-1.26Zm.73-3.12c0,.68.14,1.18.41,1.49.27.31.61.47,1.02.47s.74-.16,1.02-.47c.27-.31.41-.8.41-1.46s-.14-1.11-.42-1.44c-.28-.32-.62-.48-1.02-.48s-.72.16-1,.48c-.27.32-.41.79-.41,1.41Z"/><path class="g" d="m152.87,47.94v-1.96h-1.95v-.82h1.95v-1.95h.83v1.95h1.95v.82h-1.95v1.96h-.83Z"/><path class="g" d="m163.33,49.09v-7.16h.95v2.94h3.72v-2.94h.95v7.16h-.95v-3.37h-3.72v3.37h-.95Z"/><path class="g" d="m173.26,50.09v.59h-3.31c0-.15.02-.29.07-.43.08-.23.22-.45.4-.67.19-.22.45-.47.8-.76.54-.45.91-.8,1.1-1.06.19-.26.29-.51.29-.74,0-.24-.09-.45-.26-.62-.17-.17-.4-.25-.68-.25-.3,0-.53.09-.71.27s-.27.42-.27.74l-.63-.06c.04-.47.21-.83.49-1.08.28-.25.66-.37,1.14-.37.48,0,.86.13,1.14.4.28.27.42.6.42.99,0,.2-.04.4-.12.59-.08.19-.22.4-.41.61-.19.21-.51.51-.95.88-.37.31-.61.52-.71.63-.1.11-.19.22-.26.33h2.46Z"/><path class="g" d="m174.26,45.61c0-1.19.32-2.12.96-2.79.64-.67,1.46-1.01,2.47-1.01.66,0,1.26.16,1.79.47.53.32.94.76,1.21,1.32.28.56.42,1.21.42,1.92s-.15,1.38-.44,1.95c-.29.57-.71,1.01-1.25,1.3-.54.29-1.12.44-1.74.44-.67,0-1.28-.16-1.81-.49-.53-.33-.93-.77-1.21-1.33-.27-.56-.41-1.16-.41-1.79Zm.98.01c0,.86.23,1.54.7,2.04.46.5,1.05.74,1.75.74.71,0,1.3-.25,1.76-.75.46-.5.69-1.21.69-2.13,0-.58-.1-1.09-.3-1.53-.2-.43-.49-.77-.86-1.01-.38-.24-.8-.36-1.28-.36-.67,0-1.25.23-1.73.69-.48.46-.73,1.23-.73,2.31Z"/><path class="g" d="m190.74,47.94v-1.96h-1.95v-.82h1.95v-1.95h.83v1.95h1.95v.82h-1.95v1.96h-.83Z"/><path class="g" d="m201.2,47.2l.88-.12c.1.5.27.86.52,1.08.24.22.54.33.89.33.41,0,.76-.14,1.05-.43.28-.29.43-.64.43-1.06,0-.4-.13-.74-.4-1-.26-.26-.6-.39-1.01-.39-.17,0-.37.03-.62.1l.1-.77c.06,0,.11,0,.14,0,.37,0,.71-.1,1.01-.29.3-.2.45-.5.45-.9,0-.32-.11-.59-.33-.8-.22-.21-.5-.32-.84-.32s-.63.11-.85.32c-.23.21-.37.54-.44.97l-.88-.16c.11-.59.35-1.05.73-1.37.38-.32.85-.49,1.42-.49.39,0,.75.08,1.08.25.33.17.58.4.75.69.17.29.26.6.26.92s-.08.59-.25.84c-.17.25-.41.46-.74.61.42.1.75.3.99.61.23.31.35.69.35,1.15,0,.62-.23,1.15-.68,1.59-.46.43-1.03.65-1.73.65-.63,0-1.15-.19-1.56-.56-.42-.37-.65-.86-.71-1.46Zm5.9,1.89v-7.16h.97l3.76,5.62v-5.62h.91v7.16h-.97l-3.76-5.62v5.62h-.91Zm7.26,0v-7.16h.95v2.94h3.72v-2.94h.95v7.16h-.95v-3.37h-3.72v3.37h-.95Z"/><path class="g" d="m220.98,49.36l.62-.08c.07.35.19.6.36.75.17.15.38.23.62.23.29,0,.53-.1.73-.3.2-.2.3-.45.3-.75s-.09-.52-.28-.7c-.18-.18-.42-.28-.7-.28-.12,0-.26.02-.43.07l.07-.54s.07,0,.1,0c.26,0,.5-.07.71-.21.21-.14.31-.35.31-.63,0-.23-.08-.41-.23-.56-.15-.15-.35-.22-.59-.22s-.44.08-.6.23c-.16.15-.26.38-.31.68l-.62-.11c.08-.41.25-.73.51-.96.27-.23.6-.34.99-.34.27,0,.53.06.76.18.23.12.41.28.53.48s.18.42.18.65-.06.41-.17.59c-.12.18-.29.32-.52.42.3.07.53.21.69.43s.25.48.25.81c0,.44-.16.81-.48,1.11-.32.3-.72.46-1.21.46-.44,0-.8-.13-1.1-.39s-.46-.6-.5-1.02Z"/><line class="d" x1="21.81" y1="19.22" x2="32.64" y2="19.22"/><path class="g" d="m14.25,22.68v-7.16h3.17c.64,0,1.12.06,1.46.19.33.13.6.36.8.68.2.33.3.69.3,1.08,0,.51-.16.94-.49,1.28-.33.35-.84.57-1.52.66.25.12.44.24.57.36.28.25.54.57.79.95l1.25,1.95h-1.19l-.95-1.49c-.28-.43-.5-.76-.68-.99-.18-.23-.34-.39-.48-.48-.14-.09-.29-.15-.43-.19-.11-.02-.28-.03-.53-.03h-1.1v3.18h-.95Zm.95-4h2.04c.43,0,.77-.04,1.02-.13.24-.09.43-.23.56-.43.13-.2.19-.41.19-.64,0-.34-.12-.62-.37-.83-.25-.22-.63-.33-1.16-.33h-2.27v2.37Z"/><path class="i" d="m39.63,20.23l.95.24c-.2.78-.56,1.37-1.07,1.78-.52.41-1.15.61-1.89.61s-1.4-.16-1.88-.47c-.48-.31-.85-.77-1.1-1.36-.25-.6-.38-1.24-.38-1.92,0-.75.14-1.4.43-1.95.28-.56.69-.98,1.22-1.26.53-.29,1.1-.43,1.74-.43.72,0,1.32.18,1.81.55.49.36.83.88,1.02,1.54l-.93.22c-.17-.52-.41-.9-.72-1.14-.32-.24-.71-.36-1.19-.36-.55,0-1.01.13-1.38.4s-.63.62-.78,1.06c-.15.44-.22.9-.22,1.37,0,.61.09,1.14.27,1.59.18.45.45.79.83,1.02.37.22.78.34,1.22.34.53,0,.98-.15,1.35-.46.37-.31.62-.76.75-1.36Z"/><path class="i" d="m41.57,22.74v-7.16h.95v2.94h3.72v-2.94h.95v7.16h-.95v-3.37h-3.72v3.37h-.95Z"/><path class="i" d="m48.19,19.25c0-1.19.32-2.12.96-2.79.64-.67,1.46-1.01,2.47-1.01.66,0,1.26.16,1.79.47.53.32.94.76,1.21,1.32s.42,1.21.42,1.92-.15,1.38-.44,1.95c-.29.57-.71,1.01-1.25,1.3-.54.29-1.12.44-1.74.44-.67,0-1.28-.16-1.81-.49-.53-.33-.93-.77-1.21-1.33-.27-.56-.41-1.16-.41-1.79Zm.98.01c0,.86.23,1.54.7,2.04.46.5,1.05.74,1.75.74s1.3-.25,1.76-.75c.46-.5.69-1.21.69-2.13,0-.58-.1-1.09-.3-1.53-.2-.43-.49-.77-.86-1.01-.38-.24-.8-.36-1.28-.36-.67,0-1.25.23-1.73.69-.48.46-.73,1.23-.73,2.31Z"/><line class="d" x1="67.02" y1="44.99" x2="77.85" y2="44.99"/><path class="g" d="m59.46,48.45v-7.16h3.17c.64,0,1.12.06,1.46.19.33.13.6.36.8.68.2.33.3.69.3,1.08,0,.51-.16.94-.49,1.28-.33.35-.84.57-1.52.66.25.12.44.24.57.36.28.25.54.57.79.95l1.25,1.95h-1.19l-.95-1.49c-.28-.43-.5-.76-.68-.99-.18-.23-.34-.39-.48-.48s-.29-.15-.43-.19c-.11-.02-.28-.03-.53-.03h-1.1v3.18h-.95Zm.95-4h2.04c.43,0,.77-.04,1.02-.13.24-.09.43-.23.56-.43.13-.2.19-.41.19-.64,0-.34-.12-.62-.37-.83-.25-.22-.63-.33-1.16-.33h-2.27v2.37Z"/><path class="i" d="m84.83,46l.95.24c-.2.78-.56,1.37-1.07,1.78-.52.41-1.15.61-1.89.61s-1.4-.16-1.88-.47c-.48-.31-.85-.77-1.1-1.36-.25-.6-.38-1.24-.38-1.92,0-.75.14-1.4.43-1.95.28-.56.69-.98,1.22-1.26.53-.29,1.1-.43,1.74-.43.72,0,1.32.18,1.81.55.49.36.83.88,1.02,1.54l-.93.22c-.17-.52-.41-.9-.72-1.14-.32-.24-.71-.36-1.19-.36-.55,0-1.01.13-1.38.4s-.63.62-.78,1.06c-.15.44-.22.9-.22,1.37,0,.61.09,1.14.27,1.59.18.45.45.79.83,1.02.37.22.78.34,1.22.34.53,0,.98-.15,1.35-.46.37-.31.62-.76.75-1.36Z"/><path class="i" d="m86.77,45.02c0-1.19.32-2.12.96-2.79.64-.67,1.46-1.01,2.47-1.01.66,0,1.26.16,1.79.47.53.32.94.76,1.21,1.32.28.56.42,1.21.42,1.92s-.15,1.38-.44,1.95c-.29.57-.71,1.01-1.25,1.3-.54.29-1.12.44-1.74.44-.67,0-1.28-.16-1.81-.49-.53-.33-.93-.77-1.21-1.33-.27-.56-.41-1.16-.41-1.79Zm.98.01c0,.86.23,1.54.7,2.04s1.05.74,1.75.74,1.3-.25,1.76-.75c.46-.5.69-1.21.69-2.13,0-.58-.1-1.09-.3-1.53-.2-.43-.49-.77-.86-1.01-.38-.24-.8-.36-1.28-.36-.67,0-1.25.23-1.73.69-.48.46-.73,1.23-.73,2.31Z"/><path class="i" d="m94.62,45.02c0-1.19.32-2.12.96-2.79.64-.67,1.46-1.01,2.47-1.01.66,0,1.26.16,1.79.47.53.32.94.76,1.21,1.32.28.56.42,1.21.42,1.92s-.15,1.38-.44,1.95c-.29.57-.71,1.01-1.25,1.3-.54.29-1.12.44-1.74.44-.67,0-1.28-.16-1.81-.49-.53-.33-.93-.77-1.21-1.33-.27-.56-.41-1.16-.41-1.79Zm.98.01c0,.86.23,1.54.7,2.04s1.05.74,1.75.74,1.3-.25,1.76-.75c.46-.5.69-1.21.69-2.13,0-.58-.1-1.09-.3-1.53-.2-.43-.48-.77-.86-1.01-.38-.24-.8-.36-1.28-.36-.67,0-1.25.23-1.73.69-.48.46-.73,1.23-.73,2.31Z"/><path class="i" d="m102.47,48.51v-7.16h.95v2.94h3.72v-2.94h.95v7.16h-.95v-3.37h-3.72v3.37h-.95Z"/><path class="g" d="m64.94,21.19v-1.96h-1.95v-.82h1.95v-1.95h.83v1.95h1.95v.82h-1.95v1.96h-.83Z"/><path class="g" d="m78.16,21.5v.84h-4.73c0-.21.03-.42.1-.61.12-.32.31-.64.58-.95.27-.31.65-.67,1.15-1.08.78-.64,1.3-1.14,1.58-1.52.27-.37.41-.73.41-1.06,0-.35-.12-.64-.37-.88-.25-.24-.57-.36-.97-.36-.42,0-.76.13-1.02.38-.25.25-.38.61-.39,1.05l-.9-.09c.06-.67.29-1.19.7-1.54.4-.35.95-.53,1.63-.53s1.23.19,1.63.57c.4.38.6.85.6,1.42,0,.29-.06.57-.18.84-.12.28-.31.57-.58.87-.27.31-.72.73-1.36,1.26-.53.44-.87.74-1.02.9-.15.16-.27.32-.37.48h3.51Zm.51.84l2.75-7.16h1.02l2.93,7.16h-1.08l-.83-2.17h-2.99l-.79,2.17h-1.01Zm2.07-2.94h2.43l-.75-1.98c-.23-.6-.4-1.1-.51-1.48-.09.46-.22.91-.39,1.37l-.79,2.1Zm5.12,3.37l.85.13c.04.26.14.46.3.58.22.16.52.24.89.24.41,0,.72-.08.94-.24.22-.16.37-.39.45-.68.05-.18.07-.55.06-1.13-.38.45-.86.68-1.44.68-.71,0-1.26-.26-1.66-.77-.39-.51-.59-1.13-.59-1.85,0-.49.09-.95.27-1.37.18-.42.44-.74.78-.97.34-.23.74-.34,1.2-.34.61,0,1.12.25,1.51.74v-.62h.81v4.48c0,.81-.08,1.38-.25,1.72-.16.34-.42.6-.78.8-.36.2-.8.29-1.32.29-.62,0-1.12-.14-1.5-.42-.38-.28-.56-.7-.55-1.26Zm.73-3.12c0,.68.14,1.18.41,1.49.27.31.61.47,1.02.47s.74-.16,1.02-.47c.27-.31.41-.8.41-1.46s-.14-1.11-.42-1.44c-.28-.32-.62-.48-1.02-.48s-.72.16-1,.48c-.27.32-.41.79-.41,1.41Zm6.67,4.79c-.49-.61-.9-1.33-1.23-2.15-.34-.82-.5-1.67-.5-2.55,0-.77.13-1.52.38-2.23.29-.82.75-1.64,1.36-2.46h.63c-.39.68-.65,1.16-.78,1.45-.2.45-.35.92-.47,1.41-.14.61-.21,1.22-.21,1.84,0,1.57.49,3.13,1.46,4.69h-.63Zm1.75-2.1v-7.16h.97l3.76,5.62v-5.62h.91v7.16h-.97l-3.76-5.62v5.62h-.91Zm7.26,0v-7.16h.95v2.94h3.72v-2.94h.95v7.16h-.95v-3.37h-3.72v3.37h-.95Z"/><path class="g" d="m108.89,22.61l.62-.08c.07.35.19.6.36.75.17.15.38.23.62.23.29,0,.53-.1.73-.3.2-.2.3-.45.3-.75s-.09-.52-.28-.7c-.18-.18-.42-.28-.7-.28-.12,0-.26.02-.43.07l.07-.54s.07,0,.1,0c.26,0,.5-.07.71-.21.21-.14.31-.35.31-.63,0-.23-.08-.41-.23-.56s-.35-.22-.59-.22-.44.08-.6.23c-.16.15-.26.38-.31.68l-.62-.11c.08-.41.25-.73.51-.96.27-.23.6-.34.99-.34.27,0,.53.06.76.18s.41.28.53.48c.12.2.18.42.18.65s-.06.41-.17.59c-.12.18-.29.32-.52.42.3.07.53.21.69.43.16.22.25.48.25.81,0,.44-.16.81-.48,1.11-.32.3-.72.46-1.21.46-.44,0-.8-.13-1.1-.39-.29-.26-.46-.6-.5-1.02Z"/><path class="g" d="m113.8,24.45h-.63c.97-1.56,1.46-3.13,1.46-4.69,0-.61-.07-1.22-.21-1.82-.11-.49-.27-.96-.46-1.41-.13-.29-.39-.78-.79-1.46h.63c.61.82,1.06,1.64,1.36,2.46.25.71.38,1.45.38,2.23,0,.88-.17,1.73-.51,2.55-.34.82-.75,1.54-1.23,2.15Z"/><path class="g" d="m119.84,23.34v.59h-3.31c0-.15.02-.29.07-.43.08-.23.22-.45.41-.67.19-.22.45-.47.8-.76.54-.45.91-.8,1.1-1.06s.29-.51.29-.74c0-.24-.09-.45-.26-.62-.17-.17-.4-.25-.68-.25-.3,0-.53.09-.71.27s-.27.42-.27.74l-.63-.06c.04-.47.21-.83.49-1.08.28-.25.66-.37,1.14-.37s.86.13,1.14.4.42.6.42.99c0,.2-.04.4-.12.59s-.22.4-.41.61c-.19.21-.51.51-.95.88-.37.31-.61.52-.71.63-.1.11-.19.22-.26.33h2.46Z"/><path class="g" d="m120.84,18.86c0-1.19.32-2.12.96-2.79.64-.67,1.46-1.01,2.47-1.01.66,0,1.26.16,1.79.47.53.32.94.76,1.21,1.32.28.56.42,1.21.42,1.92s-.15,1.38-.44,1.95c-.29.57-.71,1.01-1.25,1.3-.54.29-1.12.44-1.74.44-.67,0-1.28-.16-1.81-.49-.53-.33-.93-.77-1.21-1.33-.27-.56-.41-1.16-.41-1.79Zm.98.01c0,.86.23,1.54.7,2.04s1.05.74,1.75.74,1.3-.25,1.76-.75c.46-.5.69-1.21.69-2.13,0-.58-.1-1.09-.3-1.53s-.49-.77-.86-1.01c-.38-.24-.8-.36-1.28-.36-.67,0-1.25.23-1.73.69-.48.46-.73,1.23-.73,2.31Zm7.12,3.47v-7.16h.95v2.94h3.72v-2.94h.95v7.16h-.95v-3.37h-3.72v3.37h-.95Z"/><rect class="e" x=".5" y=".5" width="237.51" height="65.26" rx="6.5" ry="6.5"/></g></svg>